<?xml version="1.0" encoding="UTF-8" standalone="no"?><svg xmlns:dc="http://purl.org/dc/elements/1.1/" xmlns:cc="http://creativecommons.org/ns#" xmlns:rdf="http://www.w3.org/1999/02/22-rdf-syntax-ns#" xmlns:svg="http://www.w3.org/2000/svg" xmlns="http://www.w3.org/2000/svg" xmlns:sodipodi="http://sodipodi.sourceforge.net/DTD/sodipodi-0.dtd" xmlns:inkscape="http://www.inkscape.org/namespaces/inkscape" width="84" height="84" viewBox="0 0 84 84.000002" id="svg17545" version="1.1" inkscape:version="0.91 r13725" sodipodi:docname="balloon-celebration.svg"><sodipodi:namedview id="base" pagecolor="#ffffff" bordercolor="#666666" borderopacity="1.0" inkscape:pageopacity="0.0" inkscape:pageshadow="2" inkscape:zoom="4.733687" inkscape:cx="-27.149626" inkscape:cy="24.340967" inkscape:document-units="px" inkscape:current-layer="layer1" showgrid="true" units="px" inkscape:window-width="1366" inkscape:window-height="716" inkscape:window-x="-8" inkscape:window-y="-8" inkscape:window-maximized="1" inkscape:snap-bbox="true" inkscape:object-nodes="true" inkscape:snap-smooth-nodes="true"><inkscape:grid type="xygrid" id="grid18115" empspacing="4"/></sodipodi:namedview><g inkscape:label="Layer 1" inkscape:groupmode="layer" id="layer1" transform="translate(0,-968.3622)"><g id="g14430" transform="translate(3187.5645,-148.4196)" fill-opacity="1" fill-rule="evenodd" stroke="none" stroke-opacity="1"><path d="M-3103.564 1158.782a42 42 0 0 1-42 42 42 42 0 0 1-42-42 42 42 0 0 1 42-42 42 42 0 0 1 42 42z" id="path14408" inkscape:connector-curvature="0" opacity="1" fill="#7658f8" stroke-width="2.5766871" stroke-linecap="round" stroke-linejoin="round" stroke-miterlimit="4" stroke-dasharray="none" stroke-dashoffset="0"/><g id="g14428" transform="matrix(1.1428522,0,0,1.1428522,-4435.178,-1581.4118)"><path d="M1131.917 2391.174c0 6.627-5.373 15-12 15-6.628 0-12-8.373-12-15 0-6.628 5.372-12 12-12 6.627 0 12 5.372 12 12z" id="path14410" inkscape:connector-curvature="0" sodipodi:nodetypes="sssss" opacity="1" fill="#5ac8fa" stroke-width="0.99999994" stroke-linecap="butt" stroke-linejoin="miter" stroke-miterlimit="4" stroke-dasharray="none" stroke-dashoffset="0"/><path id="path14412" d="M1126.334 2381.046a11.935 11.935 0 0 0-1.506 5.812c0 4.063 2.025 8.775 5.115 11.819 1.245-2.403 1.973-5.071 1.973-7.504 0-4.265-2.23-7.999-5.582-10.127z" inkscape:connector-curvature="0" opacity="1" fill="#51b4e1" stroke-width="0.99999994" stroke-linecap="butt" stroke-linejoin="miter" stroke-miterlimit="4" stroke-dasharray="none" stroke-dashoffset="0"/><path inkscape:connector-curvature="0" id="path14414" d="M1119.897 2407.667a.5.5 0 0 0-.437.709l.918 2.064a3.95 3.95 0 0 1-.492 4.032l-.227.29a4.2 4.2 0 0 0-.18 4.907l1.522 2.281a.5.5 0 1 0 .832-.554l-1.522-2.282a3.194 3.194 0 0 1 .137-3.738l.227-.291a4.952 4.952 0 0 0 .615-5.05l-.916-2.065a.5.5 0 0 0-.477-.303z" style="line-height:normal;text-indent:0;text-align:start;text-decoration-line:none;text-decoration-style:solid;text-decoration-color:#000000;text-transform:none;isolation:auto;mix-blend-mode:normal" color="#000" font-style="normal" font-variant="normal" font-weight="normal" font-stretch="normal" font-size="medium" font-family="sans-serif" text-decoration="none" letter-spacing="normal" word-spacing="normal" direction="ltr" writing-mode="lr-tb" baseline-shift="baseline" text-anchor="start" white-space="normal" clip-rule="nonzero" display="inline" overflow="visible" visibility="visible" opacity="1" color-interpolation="sRGB" color-interpolation-filters="linearRGB" solid-color="#000000" solid-opacity="1" fill="#c0ccdc" stroke-width="1px" stroke-linecap="round" stroke-linejoin="round" stroke-miterlimit="4" stroke-dasharray="none" stroke-dashoffset="0" color-rendering="auto" image-rendering="auto" shape-rendering="auto" text-rendering="auto"/><path d="M1118.917 2405.674l-1.5 3h5l-1.5-3z" id="path14416" inkscape:connector-curvature="0" sodipodi:nodetypes="ccccc" fill="#5ac8fa" stroke-width="1px" stroke-linecap="butt" stroke-linejoin="miter"/><path inkscape:connector-curvature="0" id="path14418" d="M1136.897 2401.673a.5.5 0 0 0-.437.709l.918 2.064a3.95 3.95 0 0 1-.492 4.032l-.227.29a4.2 4.2 0 0 0-.18 4.907l1.522 2.281a.5.5 0 1 0 .832-.555l-1.522-2.28a3.194 3.194 0 0 1 .137-3.739l.227-.291a4.952 4.952 0 0 0 .615-5.05l-.916-2.065a.5.5 0 0 0-.477-.303z" style="line-height:normal;text-indent:0;text-align:start;text-decoration-line:none;text-decoration-style:solid;text-decoration-color:#000000;text-transform:none;isolation:auto;mix-blend-mode:normal" color="#000" font-style="normal" font-variant="normal" font-weight="normal" font-stretch="normal" font-size="medium" font-family="sans-serif" text-decoration="none" letter-spacing="normal" word-spacing="normal" direction="ltr" writing-mode="lr-tb" baseline-shift="baseline" text-anchor="start" white-space="normal" clip-rule="nonzero" display="inline" overflow="visible" visibility="visible" opacity="1" color-interpolation="sRGB" color-interpolation-filters="linearRGB" solid-color="#000000" solid-opacity="1" fill="#c0ccdc" stroke-width="1px" stroke-linecap="round" stroke-linejoin="round" stroke-miterlimit="4" stroke-dasharray="none" stroke-dashoffset="0" color-rendering="auto" image-rendering="auto" shape-rendering="auto" text-rendering="auto"/><path sodipodi:nodetypes="ccccc" inkscape:connector-curvature="0" id="path14420" d="M1135.917 2399.68l-1.5 3h5l-1.5-3z" fill="#ff3b30" stroke-width="1px" stroke-linecap="butt" stroke-linejoin="miter"/><path sodipodi:nodetypes="sssss" inkscape:connector-curvature="0" id="path14422" d="M1148.917 2385.18c0 6.627-5.373 15-12 15-6.628 0-12-8.373-12-15 0-6.628 5.372-12 12-12 6.627 0 12 5.372 12 12z" opacity="1" fill="#ff3b30" stroke-width="0.99999994" stroke-linecap="butt" stroke-linejoin="miter" stroke-miterlimit="4" stroke-dasharray="none" stroke-dashoffset="0"/><path id="path14424" transform="translate(0,1004.3622)" d="M1119.592 1404.31l.332.75h1.094l-.332-.75z" inkscape:connector-curvature="0" opacity="1" fill="#b3becc" stroke-width="1.10000002" stroke-linecap="butt" stroke-linejoin="miter" stroke-miterlimit="4" stroke-dasharray="none" stroke-dashoffset="0"/><path id="path14426" transform="translate(0,1004.3622)" d="M1136.592 1398.318l.334.75h1.094l-.335-.75z" inkscape:connector-curvature="0" opacity="1" fill="#b3becc" stroke-width="1.10000002" stroke-linecap="butt" stroke-linejoin="miter" stroke-miterlimit="4" stroke-dasharray="none" stroke-dashoffset="0"/></g></g></g><metadata><rdf:RDF xmlns:rdf="http://www.w3.org/1999/02/22-rdf-syntax-ns#" xmlns:rdfs="http://www.w3.org/2000/01/rdf-schema#" xmlns:dc="http://purl.org/dc/elements/1.1/"><rdf:Description about="https://iconscout.com/legal#licenses" dc:title="balloon,celebration" dc:description="balloon,celebration" dc:publisher="Iconscout" dc:date="2017-11-23" dc:format="image/svg+xml" dc:language="en"><dc:creator><rdf:Bag><rdf:li>Vignesh Oviyan</rdf:li></rdf:Bag></dc:creator></rdf:Description></rdf:RDF></metadata></svg>