<?xml version="1.0" encoding="utf-8"?>
<!-- Generator: Adobe Illustrator 19.0.0, SVG Export Plug-In . SVG Version: 6.00 Build 0)  -->
<svg version="1.1"
	 id="svg17545" xmlns:inkscape="http://www.inkscape.org/namespaces/inkscape" xmlns:rdf="http://www.w3.org/1999/02/22-rdf-syntax-ns#" xmlns:dc="http://purl.org/dc/elements/1.1/" xmlns:cc="http://creativecommons.org/ns#" xmlns:svg="http://www.w3.org/2000/svg" xmlns:sodipodi="http://sodipodi.sourceforge.net/DTD/sodipodi-0.dtd" sodipodi:docname="balloon-celebration.svg" inkscape:version="0.91 r13725"
	 xmlns="http://www.w3.org/2000/svg" xmlns:xlink="http://www.w3.org/1999/xlink" x="0px" y="0px" viewBox="-263 355 84 84"
	 style="enable-background:new -263 355 84 84;" xml:space="preserve">
<style type="text/css">
	.st0{display:none;fill:#FFFFFF;}
	.st1{fill:#FFFFFF;}
</style>
<sodipodi:namedview  inkscape:cy="24.340967" units="px" showgrid="true" borderopacity="1.0" pagecolor="#ffffff" id="base" inkscape:zoom="4.733687" inkscape:cx="-27.149626" bordercolor="#666666" inkscape:snap-smooth-nodes="true" inkscape:object-nodes="true" inkscape:snap-bbox="true" inkscape:window-maximized="1" inkscape:current-layer="layer1" inkscape:pageopacity="0.0" inkscape:window-x="-8" inkscape:document-units="px" inkscape:window-height="716" inkscape:window-width="1366" inkscape:window-y="-8" inkscape:pageshadow="2">
	<inkscape:grid  type="xygrid" empspacing="4" id="grid18115"></inkscape:grid>
</sodipodi:namedview>
<g id="layer1" transform="translate(0,-968.3622)" inkscape:label="Layer 1" inkscape:groupmode="layer">
	<g id="g14430" transform="translate(3187.5645,-148.4196)">
		<path id="path14408" inkscape:connector-curvature="0" class="st0" d="M-3344.6,1514.1c0,34.6-28.1,62.7-62.7,62.7l0,0
			c-34.6,0-62.7-28.1-62.7-62.7l0,0c0-34.6,28.1-62.7,62.7-62.7C-3372.6,1451.4-3344.6,1479.5-3344.6,1514.1z"/>
		<g id="g14428" transform="matrix(1.1428522,0,0,1.1428522,-4435.178,-1581.4118)">
			<path id="path14410" sodipodi:nodetypes="sssss" inkscape:connector-curvature="0" class="st1" d="M904.7,2698.9
				c0,9.9-8,22.4-17.9,22.4c-9.9,0-17.9-12.5-17.9-22.4c0-9.9,8-17.9,17.9-17.9C896.7,2681,904.7,2689,904.7,2698.9z"/>
			<path id="path14412" inkscape:connector-curvature="0" class="st1" d="M896.3,2683.8c-1.5,2.7-2.2,5.6-2.2,8.7
				c0,6.1,3,13.1,7.6,17.6c1.9-3.6,2.9-7.6,2.9-11.2C904.7,2692.5,901.4,2686.9,896.3,2683.8L896.3,2683.8z"/>
			
				<path id="path14414" text-rendering="auto" shape-rendering="auto" color-rendering="auto" image-rendering="auto" color-interpolation="sRGB" inkscape:connector-curvature="0" class="st1" d="
				M886.7,2723.5c-0.4,0-0.7,0.4-0.7,0.8c0,0.1,0,0.2,0.1,0.3l1.4,3.1c0.9,2,0.6,4.3-0.7,6l-0.3,0.4c-1.7,2.1-1.8,5.1-0.3,7.3
				l2.3,3.4c0.2,0.3,0.7,0.5,1,0.2c0.3-0.2,0.5-0.7,0.2-1c0,0,0,0,0,0l-2.3-3.4c-1.1-1.7-1.1-4,0.2-5.6l0.3-0.4c1.7-2.2,2-5,0.9-7.5
				l-1.4-3.1C887.3,2723.6,887.1,2723.5,886.7,2723.5L886.7,2723.5z"/>
			<path id="path14416" sodipodi:nodetypes="ccccc" inkscape:connector-curvature="0" class="st1" d="M885.3,2720.5l-2.2,4.5h7.5
				l-2.2-4.5H885.3z"/>
			
				<path id="path14418" text-rendering="auto" shape-rendering="auto" color-rendering="auto" image-rendering="auto" color-interpolation="sRGB" inkscape:connector-curvature="0" class="st1" d="
				M912.1,2714.5c-0.4,0-0.7,0.4-0.7,0.8c0,0.1,0,0.2,0.1,0.3l1.4,3.1c0.9,2,0.6,4.3-0.7,6l-0.3,0.4c-1.7,2.1-1.8,5.1-0.3,7.3
				l2.3,3.4c0.2,0.3,0.7,0.4,1,0.2c0.3-0.2,0.4-0.7,0.2-1l-2.3-3.4c-1.1-1.7-1.1-4,0.2-5.6l0.3-0.4c1.7-2.2,2-5,0.9-7.5l-1.4-3.1
				C912.7,2714.7,912.4,2714.5,912.1,2714.5L912.1,2714.5z"/>
			<path id="path14420" sodipodi:nodetypes="ccccc" inkscape:connector-curvature="0" class="st1" d="M910.6,2711.6l-2.2,4.5h7.5
				l-2.2-4.5H910.6z"/>
			<path id="path14422" sodipodi:nodetypes="sssss" inkscape:connector-curvature="0" class="st1" d="M930,2689.9
				c0,9.9-8,22.4-17.9,22.4c-9.9,0-17.9-12.5-17.9-22.4c0-9.9,8-17.9,17.9-17.9C922,2672,930,2680,930,2689.9z"/>
			<path id="path14424" inkscape:connector-curvature="0" class="st1" d="M886.3,2725l0.5,1.1h1.6l-0.5-1.1H886.3z"/>
			<path id="path14426" inkscape:connector-curvature="0" class="st1" d="M911.7,2716l0.5,1.1h1.6l-0.5-1.1H911.7z"/>
		</g>
	</g>
</g>
</svg>
