<?xml version="1.0" encoding="UTF-8"?><!DOCTYPE svg PUBLIC "-//W3C//DTD SVG 1.1//EN" "http://www.w3.org/Graphics/SVG/1.1/DTD/svg11.dtd"><svg xmlns="http://www.w3.org/2000/svg" xmlns:xlink="http://www.w3.org/1999/xlink" version="1.1" id="Layer_1" x="0px" y="0px" width="512px" height="512px" viewBox="0 0 512 512" xml:space="preserve"><path fill="#65A844" d="M7.9 256C7.9 119 119 7.9 256 7.9S504.1 119 504.1 256 393 504.1 256 504.1 7.9 393 7.9 256z"/><path fill="#3D3123" d="M218.9 178.6c0-21.9 17.9-32.7 40-32.7s40 10.8 40 32.7v25.1l-79.9-.2c-.1-.5-.1-24.6-.1-24.9z"/><path fill="#3D3123" d="M352.6 218h-20.7c-3 0-5.5-2.5-5.5-5.5s2.5-5.5 5.5-5.5H347v-30.3c0-1.5.6-2.9 1.6-3.9 0 0 33.2-29.7 35.3-27.5C386 147.4 358 179 358 179v33.5c.1 3-2.4 5.5-5.4 5.5z"/><path fill="#3D3123" d="M398 293.8c-1.6 0-3.3-.7-4.3-2.1L365 255.2h-30.4c-3 0-5.5-2.5-5.5-5.5s2.5-5.5 5.5-5.5h33.1c1.7 0 3.3.8 4.3 2.1l27 34.4s27.8-17.4 29.6-14.9c1.8 2.4-27.3 27-27.3 27-1 .6-2.2 1-3.3 1z"/><path fill="#3D3123" d="M365.6 360c-1.2-1-1.9-2.4-2-3.9l-2.6-46.6-30.5-17.8c-2.6-1.5-3.5-4.9-2-7.5 1.5-2.6 4.9-3.5 7.5-2l33.1 19.3c1.6.9 2.6 2.6 2.7 4.5l2.6 47.2s49 43.8 47.1 46.2c-1.1 1.1-55.9-39.4-55.9-39.4z"/><path fill="#3D3123" d="M187.3 218h-20.7c-3 0-5.5-2.5-5.5-5.5V179s-28.1-31.6-25.9-33.7c2.2-2.2 35.3 27.5 35.3 27.5 1 1 1.6 2.4 1.6 3.9V207h15.2c3 0 5.5 2.5 5.5 5.5s-2.5 5.5-5.5 5.5z"/><path fill="#3D3123" d="M121.2 293.8c-1.1 0-2.3-.3-3.3-1.1 0 0-29.1-24.5-27.3-27 1.8-2.4 29.6 14.9 29.6 14.9l27-34.4c1-1.3 2.6-2.1 4.3-2.1h33.1c3 0 5.5 2.5 5.5 5.5s-2.5 5.5-5.5 5.5h-30.4l-28.6 36.5c-1.2 1.4-2.8 2.2-4.4 2.2z"/><path fill="#3D3123" d="M97.6 399.2c-1.9-2.3 47.1-46.2 47.1-46.2l2.6-47.2c.1-1.8 1.1-3.5 2.7-4.5l33-19.3c2.6-1.5 6-.6 7.5 2s.7 6-2 7.5L158 309.3l-2.6 46.6c-.1 1.5-.8 3-2 3.9.2.2-54.7 40.7-55.8 39.4z"/><g><path fill="#3D3123" d="M335.2 314.3c0 49.5-34.2 89.6-76.3 89.6s-76.3-40.1-76.3-89.6V197.5l152.6.5v116.3z"/></g><g><path fill="#564635" d="M336.9 198.2c0-.7-.5-1.4-1.2-1.6-.4-.1-44.6-14.3-79-14.3s-74.3 13.8-74.7 13.9c-.7.2-1.1.9-1.2 1.6v105c0 45.4 35 82.3 78.1 82.3 43 0 78.1-36.9 78.1-82.3 0-1.1 0-103.8-.1-104.6z"/></g><g><path fill="#4F412F" d="M256.7 182.3c-34.4 0-74.3 13.8-74.7 13.9-.7.2-1.1.9-1.2 1.6v105c0 45.4 35 82.3 78.1 82.3l-2.2-202.8z"/></g><g><path fill="#3D3123" d="M263 395.8c0 2.3-1.8 4.1-4.1 4.1s-4.1-1.9-4.1-4.1c0 0 1.8-102.5 4.1-102.5s4.1 102.5 4.1 102.5z"/></g><g><path fill="#30251A" d="M284.6 170.7c-.9 0-1.9-.2-2.8-.8-2.6-1.5-3.5-4.9-2-7.5 1.6-2.7 39.3-65.9 92.1-68.8 3-.2 5.6 2.2 5.8 5.2.2 3-2.2 5.6-5.2 5.8-46.9 2.6-82.9 62.8-83.2 63.4-1 1.8-2.8 2.7-4.7 2.7z"/><path fill="#30251A" d="M364 99.1c0-4.6 3.7-8.3 8.3-8.3s8.3 3.7 8.3 8.3c0 4.6-3.7 8.3-8.3 8.3s-8.3-3.7-8.3-8.3z"/><g><path fill="#30251A" d="M235.5 170.7c-1.9 0-3.7-1-4.8-2.7-.4-.6-36.3-60.8-83.2-63.4-3-.2-5.4-2.8-5.2-5.8.2-3 2.8-5.4 5.8-5.2 52.8 2.9 90.6 66.1 92.1 68.8 1.5 2.6.7 6-2 7.5-.8.6-1.8.8-2.7.8z"/><path fill="#30251A" d="M136.3 99.1c0-4.6 3.7-8.3 8.3-8.3 4.6 0 8.3 3.7 8.3 8.3 0 4.6-3.7 8.3-8.3 8.3-4.6 0-8.3-3.7-8.3-8.3z"/></g></g><metadata><rdf:RDF xmlns:rdf="http://www.w3.org/1999/02/22-rdf-syntax-ns#" xmlns:rdfs="http://www.w3.org/2000/01/rdf-schema#" xmlns:dc="http://purl.org/dc/elements/1.1/"><rdf:Description about="https://iconscout.com/legal#licenses" dc:title="bug" dc:description="bug" dc:publisher="Iconscout" dc:date="2018-03-26" dc:format="image/svg+xml" dc:language="en"><dc:creator><rdf:Bag><rdf:li>Roundicons.com</rdf:li></rdf:Bag></dc:creator></rdf:Description></rdf:RDF></metadata></svg>