<?xml version="1.0" encoding="utf-8"?>
<!-- Generator: Adobe Illustrator 19.0.0, SVG Export Plug-In . SVG Version: 6.00 Build 0)  -->
<svg version="1.1" id="Layer_1" xmlns="http://www.w3.org/2000/svg" xmlns:xlink="http://www.w3.org/1999/xlink" x="0px" y="0px"
	 viewBox="-49 141 512 512" style="enable-background:new -49 141 512 512;" xml:space="preserve">
<style type="text/css">
	.st0{fill:#CCCCCC;}
	.st1{fill:#B6B6B6;}
	.st2{fill:#BCBCBC;}
	.st3{fill:#D8D8D8;}
</style>
<path class="st0" d="M146.3,294.5c0-32.7,26.7-48.8,59.6-48.8s59.6,16.1,59.6,48.8v37.4l-119.2-0.3
	C146.3,330.9,146.3,294.9,146.3,294.5L146.3,294.5z"/>
<path class="st0" d="M345.7,353.2h-30.9c-4.5,0-8.2-3.7-8.2-8.2c0-4.5,3.7-8.2,8.2-8.2h22.5v-45.2c0-2.2,0.9-4.3,2.4-5.8
	c0,0,49.5-44.3,52.6-41c3.1,3.1-38.6,50.3-38.6,50.3v50C353.9,349.5,350.2,353.2,345.7,353.2z"/>
<path class="st0" d="M413.4,466.3c-2.4,0-4.9-1-6.4-3.1l-42.8-54.4h-45.3c-4.5,0-8.2-3.7-8.2-8.2c0-4.5,3.7-8.2,8.2-8.2h49.4
	c2.5,0,4.9,1.2,6.4,3.1l40.3,51.3c0,0,41.5-25.9,44.1-22.2c2.7,3.6-40.7,40.3-40.7,40.3C416.8,465.7,415,466.3,413.4,466.3
	L413.4,466.3z"/>
<path class="st0" d="M365.1,565c-1.8-1.5-2.8-3.6-3-5.8l-3.9-69.5l-45.5-26.5c-3.9-2.2-5.2-7.3-3-11.2s7.3-5.2,11.2-3l49.4,28.8
	c2.4,1.3,3.9,3.9,4,6.7l3.9,70.4c0,0,73.1,65.3,70.2,68.9C446.8,625.4,365.1,565,365.1,565L365.1,565z"/>
<path class="st0" d="M99.2,353.2H68.3c-4.5,0-8.2-3.7-8.2-8.2v-50c0,0-41.9-47.1-38.6-50.3c3.3-3.3,52.6,41,52.6,41
	c1.5,1.5,2.4,3.6,2.4,5.8v45.2h22.7c4.5,0,8.2,3.7,8.2,8.2C107.4,349.5,103.7,353.2,99.2,353.2L99.2,353.2z"/>
<path class="st0" d="M0.6,466.3c-1.6,0-3.4-0.4-4.9-1.6c0,0-43.4-36.5-40.7-40.3c2.7-3.6,44.1,22.2,44.1,22.2l40.3-51.3
	c1.5-1.9,3.9-3.1,6.4-3.1h49.4c4.5,0,8.2,3.7,8.2,8.2c0,4.5-3.7,8.2-8.2,8.2H49.8L7.2,463C5.4,465.1,3,466.3,0.6,466.3L0.6,466.3z"
	/>
<path class="st0" d="M-34.6,623.4c-2.8-3.4,70.2-68.9,70.2-68.9l3.9-70.4c0.1-2.7,1.6-5.2,4-6.7l49.2-28.8c3.9-2.2,8.9-0.9,11.2,3
	c2.2,3.9,1,8.9-3,11.2l-45.5,26.5l-3.9,69.5c-0.1,2.2-1.2,4.5-3,5.8C48.9,565-32.9,625.4-34.6,623.4L-34.6,623.4z"/>
<g>
	<path class="st0" d="M319.7,496.8c0,73.8-51,133.6-113.8,133.6S92.2,570.7,92.2,496.8V322.7l227.6,0.7V496.8z"/>
</g>
<g>
	<path class="st1" d="M322.3,323.7c0-1-0.7-2.1-1.8-2.4c-0.6-0.1-66.5-21.3-117.8-21.3S91.9,320.6,91.3,320.7
		c-1,0.3-1.6,1.3-1.8,2.4v156.6c0,67.7,52.2,122.7,116.5,122.7c64.1,0,116.5-55,116.5-122.7C322.4,478,322.4,324.9,322.3,323.7
		L322.3,323.7z"/>
</g>
<g>
	<path class="st2" d="M202.7,300c-51.3,0-110.8,20.6-111.4,20.7c-1,0.3-1.6,1.3-1.8,2.4v156.6c0,67.7,52.2,122.7,116.5,122.7
		L202.7,300L202.7,300z"/>
</g>
<g>
	<path class="st0" d="M212.1,618.4c0,3.4-2.7,6.1-6.1,6.1c-3.4,0-6.1-2.8-6.1-6.1c0,0,2.7-152.9,6.1-152.9
		C209.4,465.5,212.1,618.4,212.1,618.4z"/>
</g>
<g>
	<path class="st3" d="M244.3,282.7c-1.3,0-2.8-0.3-4.2-1.2c-3.9-2.2-5.2-7.3-3-11.2c2.4-4,58.6-98.3,137.3-102.6
		c4.5-0.3,8.4,3.3,8.6,7.8c0.3,4.5-3.3,8.4-7.8,8.6c-69.9,3.9-123.6,93.7-124.1,94.5C249.8,281.4,247.1,282.7,244.3,282.7
		L244.3,282.7z"/>
	<path class="st3" d="M362.7,175.9c0-6.9,5.5-12.4,12.4-12.4c6.9,0,12.4,5.5,12.4,12.4c0,6.9-5.5,12.4-12.4,12.4
		C368.2,188.3,362.7,182.8,362.7,175.9z"/>
	<g>
		<path class="st3" d="M171.1,282.7c-2.8,0-5.5-1.5-7.2-4c-0.6-0.9-54.1-90.7-124.1-94.5c-4.5-0.3-8.1-4.2-7.8-8.6
			c0.3-4.5,4.2-8.1,8.6-7.8c78.7,4.3,135.1,98.6,137.3,102.6c2.2,3.9,1,8.9-3,11.2C173.9,282.4,172.4,282.7,171.1,282.7L171.1,282.7
			z"/>
		<path class="st3" d="M23.1,175.9c0-6.9,5.5-12.4,12.4-12.4s12.4,5.5,12.4,12.4c0,6.9-5.5,12.4-12.4,12.4S23.1,182.8,23.1,175.9z"
			/>
	</g>
</g>
</svg>
