<?xml version="1.0" encoding="UTF-8"?><!DOCTYPE svg PUBLIC "-//W3C//DTD SVG 1.1//EN" "http://www.w3.org/Graphics/SVG/1.1/DTD/svg11.dtd"><svg xmlns="http://www.w3.org/2000/svg" xmlns:xlink="http://www.w3.org/1999/xlink" version="1.1" id="Layer_1" x="0px" y="0px" viewBox="0 0 128 128" xml:space="preserve"><circle fill="#41C19E" cx="64" cy="64" r="64"/><linearGradient id="SVGID_1_" gradientUnits="userSpaceOnUse" x1="113.8819" y1="104.6127" x2="33.6349" y2="24.3657"><stop offset="6.099907e-002" stop-color="#FFF" stop-opacity="0"/><stop offset="0.162" stop-color="#CDCDCD" stop-opacity="0.1075"/><stop offset="0.2839" stop-color="#979797" stop-opacity="0.2374"/><stop offset="0.4075" stop-color="#696969" stop-opacity="0.369"/><stop offset="0.5299" stop-color="#434343" stop-opacity="0.4994"/><stop offset="0.6511" stop-color="#262626" stop-opacity="0.6284"/><stop offset="0.7706" stop-color="#111" stop-opacity="0.7557"/><stop offset="0.8878" stop-color="#040404" stop-opacity="0.8806"/><stop offset="1" stop-color="#000"/></linearGradient><path opacity="0.2" fill="url(#SVGID_1_)" d="M128 64c0-2.1-.1-4.2-.3-6.3L99 29H29v5.6l3.5 3.6v39.4c0 .4.2.8.5 1.1l14.8 14.8-.9 4.1c-.1.4 0 .8.3 1.1L75.5 127c29.9-5.5 52.5-31.6 52.5-63z"/><path fill="#64798A" d="M81.2 97.5l-6.1-27.2H52.9l-6.1 27.2c-.2.7.3 1.3.9 1.5.7.2 1.3-.3 1.5-.9l2.1-9.4h25.3l2.1 9.4c.1.6.6 1 1.2 1h.3c.7-.3 1.1-.9 1-1.6zM54.9 72.8h18.2l3 13.3H51.9l3-13.3z"/><path fill="#3A556A" d="M29 29h70v5.6H29z"/><path fill="#64798A" d="M32.5 34.6v43c0 .8.7 1.5 1.5 1.5h60c.8 0 1.5-.7 1.5-1.5v-43h-63z"/><path fill="#EBF0F3" d="M36.5 38.6h54.9V75H36.5z"/><path fill="#FCD462" d="M36.5 75l16.9-23.4L66.7 75"/><path fill="#FCD462" d="M91.5 75l-.1-13.4L72.8 43 60.6 60.2l8.5 14.9z"/><path fill="#F6C358" d="M66.7 75l2.4.1-8.5-14.9-1.3 1.8z"/><path fill="#FCD462" d="M59.3 62l-5.9-10.4L36.5 75H66.7z"/><circle fill="#44C4A1" cx="44.8" cy="46.2" r="4.2"/><metadata><rdf:RDF xmlns:rdf="http://www.w3.org/1999/02/22-rdf-syntax-ns#" xmlns:rdfs="http://www.w3.org/2000/01/rdf-schema#" xmlns:dc="http://purl.org/dc/elements/1.1/"><rdf:Description about="https://iconscout.com/legal#licenses" dc:publisher="Iconscout" dc:date="2018-02-06" dc:format="image/svg+xml" dc:language="en"><dc:creator><rdf:Bag><rdf:li>Pro Symbols</rdf:li></rdf:Bag></dc:creator></rdf:Description></rdf:RDF></metadata></svg>