<svg xmlns="http://www.w3.org/2000/svg" width="64" height="64" enable-background="new 0 0 64 64" viewBox="0 0 64 64"><circle cx="17.005" cy="11.5" r="10.5" fill="#656D78"/><circle cx="17.005" cy="11.5" r="9.5" fill="#545C66"/><circle cx="17.005" cy="11.5" r="8.5" fill="#656D78"/><circle cx="17.005" cy="11.5" r="7.5" fill="#545C66"/><path fill="#656D78" d="M17.005,18c3.587,0,6.5-2.912,6.5-6.5c0-3.587-2.913-6.5-6.5-6.5s-6.5,2.913-6.5,6.5
				C10.505,15.088,13.418,18,17.005,18z"/><path fill="#545C66" d="M17.005,17c3.034,0,5.5-2.465,5.5-5.5S20.039,6,17.005,6s-5.5,2.465-5.5,5.5S13.971,17,17.005,17z"/><path fill="#656D78" d="M17.005,16c2.483,0,4.5-2.018,4.5-4.5S19.488,7,17.005,7s-4.5,2.018-4.5,4.5S14.521,16,17.005,16z"/><circle cx="17.005" cy="11.5" r="3.5" fill="#545C66"/><circle cx="17.005" cy="11.5" r="2.5" fill="#656D78"/><circle cx="17.005" cy="11.5" r="1.5" fill="#545C66"/><circle cx="17.005" cy="11.5" r=".5" fill="#656D78"/><path fill="#434A54" d="M27.505,52.5v-41c0-5.8-4.7-10.5-10.5-10.5h39.489v52H27.495C27.505,52.83,27.505,52.67,27.505,52.5z"/><path fill="#545C66" d="M27.505,11.5v41c0,0.17,0,0.33-0.01,0.5c-0.26,5.57-4.86,10-10.49,10c-5.8,0-10.5-4.699-10.5-10.5v-41
				c0,5.801,4.7,10.5,10.5,10.5S27.505,17.301,27.505,11.5z"/><path fill="#434A54" d="M56.494,52.999c-0.553,0-1-0.447-1-1V2.001c0-0.553,0.447-1,1-1s1,0.447,1,1v49.998
					C57.494,52.552,57.047,52.999,56.494,52.999z"/><g><path fill="#656D78" d="M9.021,22.481c-0.276,0-0.505-0.224-0.505-0.5s0.219-0.5,0.494-0.5h0.011c0.275,0,0.5,0.224,0.5,0.5
						S9.296,22.481,9.021,22.481z"/><path fill="#545C66" d="M34.521 3.482c-.276 0-.505-.224-.505-.5s.219-.5.494-.5h.011c.275 0 .5.224.5.5S34.796 3.482 34.521 3.482zM26.521 3.482c-.276 0-.505-.224-.505-.5s.219-.5.494-.5h.011c.275 0 .5.224.5.5S26.796 3.482 26.521 3.482zM30.521 7.482c-.276 0-.505-.224-.505-.5s.219-.5.494-.5h.011c.275 0 .5.224.5.5S30.796 7.482 30.521 7.482z"/><path fill="#656D78" d="M13.021 26.481c-.276 0-.505-.224-.505-.5s.219-.5.494-.5h.011c.275 0 .5.224.5.5S13.296 26.481 13.021 26.481zM9.021 30.481c-.276 0-.505-.224-.505-.5s.219-.5.494-.5h.011c.275 0 .5.224.5.5S9.296 30.481 9.021 30.481z"/><path fill="#545C66" d="M42.521 3.482c-.276 0-.505-.224-.505-.5s.219-.5.494-.5h.011c.275 0 .5.224.5.5S42.796 3.482 42.521 3.482zM38.521 7.482c-.276 0-.505-.224-.505-.5s.219-.5.494-.5h.011c.275 0 .5.224.5.5S38.796 7.482 38.521 7.482zM34.521 11.482c-.276 0-.505-.224-.505-.5s.219-.5.494-.5h.011c.275 0 .5.224.5.5S34.796 11.482 34.521 11.482zM30.521 15.482c-.276 0-.505-.224-.505-.5s.219-.5.494-.5h.011c.275 0 .5.224.5.5S30.796 15.482 30.521 15.482z"/><path fill="#656D78" d="M25.021 22.481c-.276 0-.505-.224-.505-.5s.219-.5.494-.5h.011c.275 0 .5.224.5.5S25.296 22.481 25.021 22.481zM21.021 26.481c-.276 0-.505-.224-.505-.5s.219-.5.494-.5h.011c.275 0 .5.224.5.5S21.296 26.481 21.021 26.481zM17.021 30.481c-.276 0-.505-.224-.505-.5s.219-.5.494-.5h.011c.275 0 .5.224.5.5S17.296 30.481 17.021 30.481zM13.021 34.481c-.276 0-.505-.224-.505-.5s.219-.5.494-.5h.011c.275 0 .5.224.5.5S13.296 34.481 13.021 34.481zM9.021 38.481c-.276 0-.505-.224-.505-.5s.219-.5.494-.5h.011c.275 0 .5.224.5.5S9.296 38.481 9.021 38.481z"/><path fill="#545C66" d="M50.521 3.482c-.276 0-.505-.224-.505-.5s.219-.5.494-.5h.011c.275 0 .5.224.5.5S50.796 3.482 50.521 3.482zM46.521 7.482c-.276 0-.505-.224-.505-.5s.219-.5.494-.5h.011c.275 0 .5.224.5.5S46.796 7.482 46.521 7.482zM42.521 11.482c-.276 0-.505-.224-.505-.5s.219-.5.494-.5h.011c.275 0 .5.224.5.5S42.796 11.482 42.521 11.482zM38.521 15.482c-.276 0-.505-.224-.505-.5s.219-.5.494-.5h.011c.275 0 .5.224.5.5S38.796 15.482 38.521 15.482zM34.521 19.482c-.276 0-.505-.224-.505-.5s.219-.5.494-.5h.011c.275 0 .5.224.5.5S34.796 19.482 34.521 19.482zM30.521 23.482c-.276 0-.505-.224-.505-.5s.219-.5.494-.5h.011c.275 0 .5.224.5.5S30.796 23.482 30.521 23.482z"/><path fill="#656D78" d="M25.021 30.481c-.276 0-.505-.224-.505-.5s.219-.5.494-.5h.011c.275 0 .5.224.5.5S25.296 30.481 25.021 30.481zM21.021 34.481c-.276 0-.505-.224-.505-.5s.219-.5.494-.5h.011c.275 0 .5.224.5.5S21.296 34.481 21.021 34.481zM17.021 38.481c-.276 0-.505-.224-.505-.5s.219-.5.494-.5h.011c.275 0 .5.224.5.5S17.296 38.481 17.021 38.481zM13.021 42.481c-.276 0-.505-.224-.505-.5s.219-.5.494-.5h.011c.275 0 .5.224.5.5S13.296 42.481 13.021 42.481zM9.021 46.481c-.276 0-.505-.224-.505-.5s.219-.5.494-.5h.011c.275 0 .5.224.5.5S9.296 46.481 9.021 46.481z"/><path fill="#545C66" d="M54.521 7.482c-.276 0-.505-.224-.505-.5s.219-.5.494-.5h.011c.275 0 .5.224.5.5S54.796 7.482 54.521 7.482zM50.521 11.482c-.276 0-.505-.224-.505-.5s.219-.5.494-.5h.011c.275 0 .5.224.5.5S50.796 11.482 50.521 11.482zM46.521 15.482c-.276 0-.505-.224-.505-.5s.219-.5.494-.5h.011c.275 0 .5.224.5.5S46.796 15.482 46.521 15.482zM42.521 19.482c-.276 0-.505-.224-.505-.5s.219-.5.494-.5h.011c.275 0 .5.224.5.5S42.796 19.482 42.521 19.482zM38.521 23.482c-.276 0-.505-.224-.505-.5s.219-.5.494-.5h.011c.275 0 .5.224.5.5S38.796 23.482 38.521 23.482zM34.521 27.482c-.276 0-.505-.224-.505-.5s.219-.5.494-.5h.011c.275 0 .5.224.5.5S34.796 27.482 34.521 27.482zM30.521 31.482c-.276 0-.505-.224-.505-.5s.219-.5.494-.5h.011c.275 0 .5.224.5.5S30.796 31.482 30.521 31.482z"/><path fill="#656D78" d="M25.021 38.481c-.276 0-.505-.224-.505-.5s.219-.5.494-.5h.011c.275 0 .5.224.5.5S25.296 38.481 25.021 38.481zM21.021 42.481c-.276 0-.505-.224-.505-.5s.219-.5.494-.5h.011c.275 0 .5.224.5.5S21.296 42.481 21.021 42.481zM17.021 46.481c-.276 0-.505-.224-.505-.5s.219-.5.494-.5h.011c.275 0 .5.224.5.5S17.296 46.481 17.021 46.481zM13.021 50.481c-.276 0-.505-.224-.505-.5s.219-.5.494-.5h.011c.275 0 .5.224.5.5S13.296 50.481 13.021 50.481zM9.021 54.481c-.276 0-.505-.224-.505-.5s.219-.5.494-.5h.011c.275 0 .5.224.5.5S9.296 54.481 9.021 54.481z"/><path fill="#545C66" d="M54.521 15.482c-.276 0-.505-.224-.505-.5s.219-.5.494-.5h.011c.275 0 .5.224.5.5S54.796 15.482 54.521 15.482zM50.521 19.482c-.276 0-.505-.224-.505-.5s.219-.5.494-.5h.011c.275 0 .5.224.5.5S50.796 19.482 50.521 19.482zM46.521 23.482c-.276 0-.505-.224-.505-.5s.219-.5.494-.5h.011c.275 0 .5.224.5.5S46.796 23.482 46.521 23.482zM42.521 27.482c-.276 0-.505-.224-.505-.5s.219-.5.494-.5h.011c.275 0 .5.224.5.5S42.796 27.482 42.521 27.482zM38.521 31.482c-.276 0-.505-.224-.505-.5s.219-.5.494-.5h.011c.275 0 .5.224.5.5S38.796 31.482 38.521 31.482zM34.521 35.482c-.276 0-.505-.224-.505-.5s.219-.5.494-.5h.011c.275 0 .5.224.5.5S34.796 35.482 34.521 35.482zM30.521 39.482c-.276 0-.505-.224-.505-.5s.219-.5.494-.5h.011c.275 0 .5.224.5.5S30.796 39.482 30.521 39.482z"/><path fill="#656D78" d="M25.021 46.481c-.276 0-.505-.224-.505-.5s.219-.5.494-.5h.011c.275 0 .5.224.5.5S25.296 46.481 25.021 46.481zM21.021 50.481c-.276 0-.505-.224-.505-.5s.219-.5.494-.5h.011c.275 0 .5.224.5.5S21.296 50.481 21.021 50.481zM17.021 54.481c-.276 0-.505-.224-.505-.5s.219-.5.494-.5h.011c.275 0 .5.224.5.5S17.296 54.481 17.021 54.481zM13.021 58.481c-.276 0-.505-.224-.505-.5s.219-.5.494-.5h.011c.275 0 .5.224.5.5S13.296 58.481 13.021 58.481z"/><path fill="#545C66" d="M54.521 23.482c-.276 0-.505-.224-.505-.5s.219-.5.494-.5h.011c.275 0 .5.224.5.5S54.796 23.482 54.521 23.482zM50.521 27.482c-.276 0-.505-.224-.505-.5s.219-.5.494-.5h.011c.275 0 .5.224.5.5S50.796 27.482 50.521 27.482zM46.521 31.482c-.276 0-.505-.224-.505-.5s.219-.5.494-.5h.011c.275 0 .5.224.5.5S46.796 31.482 46.521 31.482zM42.521 35.482c-.276 0-.505-.224-.505-.5s.219-.5.494-.5h.011c.275 0 .5.224.5.5S42.796 35.482 42.521 35.482zM38.521 39.482c-.276 0-.505-.224-.505-.5s.219-.5.494-.5h.011c.275 0 .5.224.5.5S38.796 39.482 38.521 39.482zM34.521 43.482c-.276 0-.505-.224-.505-.5s.219-.5.494-.5h.011c.275 0 .5.224.5.5S34.796 43.482 34.521 43.482zM30.521 47.482c-.276 0-.505-.224-.505-.5s.219-.5.494-.5h.011c.275 0 .5.224.5.5S30.796 47.482 30.521 47.482z"/><path fill="#656D78" d="M25.021 54.481c-.276 0-.505-.224-.505-.5s.219-.5.494-.5h.011c.275 0 .5.224.5.5S25.296 54.481 25.021 54.481zM21.021 58.481c-.276 0-.505-.224-.505-.5s.219-.5.494-.5h.011c.275 0 .5.224.5.5S21.296 58.481 21.021 58.481zM17.021 62.481c-.276 0-.505-.224-.505-.5s.219-.5.494-.5h.011c.275 0 .5.224.5.5S17.296 62.481 17.021 62.481z"/><path fill="#545C66" d="M54.521 31.482c-.276 0-.505-.224-.505-.5s.219-.5.494-.5h.011c.275 0 .5.224.5.5S54.796 31.482 54.521 31.482zM50.521 35.482c-.276 0-.505-.224-.505-.5s.219-.5.494-.5h.011c.275 0 .5.224.5.5S50.796 35.482 50.521 35.482zM46.521 39.482c-.276 0-.505-.224-.505-.5s.219-.5.494-.5h.011c.275 0 .5.224.5.5S46.796 39.482 46.521 39.482zM42.521 43.482c-.276 0-.505-.224-.505-.5s.219-.5.494-.5h.011c.275 0 .5.224.5.5S42.796 43.482 42.521 43.482zM38.521 47.482c-.276 0-.505-.224-.505-.5s.219-.5.494-.5h.011c.275 0 .5.224.5.5S38.796 47.482 38.521 47.482zM54.521 39.482c-.276 0-.505-.224-.505-.5s.219-.5.494-.5h.011c.275 0 .5.224.5.5S54.796 39.482 54.521 39.482zM50.521 43.482c-.276 0-.505-.224-.505-.5s.219-.5.494-.5h.011c.275 0 .5.224.5.5S50.796 43.482 50.521 43.482zM34.521 51.482c-.276 0-.505-.224-.505-.5s.219-.5.494-.5h.011c.275 0 .5.224.5.5S34.796 51.482 34.521 51.482zM42.521 51.482c-.276 0-.505-.224-.505-.5s.219-.5.494-.5h.011c.275 0 .5.224.5.5S42.796 51.482 42.521 51.482zM50.521 51.482c-.276 0-.505-.224-.505-.5s.219-.5.494-.5h.011c.275 0 .5.224.5.5S50.796 51.482 50.521 51.482zM46.521 47.482c-.276 0-.505-.224-.505-.5s.219-.5.494-.5h.011c.275 0 .5.224.5.5S46.796 47.482 46.521 47.482zM54.521 47.482c-.276 0-.505-.224-.505-.5s.219-.5.494-.5h.011c.275 0 .5.224.5.5S54.796 47.482 54.521 47.482z"/></g></svg>