<?xml version="1.0" encoding="UTF-8"?><!DOCTYPE svg PUBLIC "-//W3C//DTD SVG 1.1//EN" "http://www.w3.org/Graphics/SVG/1.1/DTD/svg11.dtd"><svg xmlns="http://www.w3.org/2000/svg" xmlns:xlink="http://www.w3.org/1999/xlink" version="1.1" id="Layer_1" x="0px" y="0px" width="512px" height="512px" viewBox="0 0 512 512" xml:space="preserve"><path fill="#4ABC96" d="M7.9 256C7.9 119 119 7.9 256 7.9S504.1 119 504.1 256 393 504.1 256 504.1 7.9 393 7.9 256z"/><path fill="#ED7B3A" d="M360.8 256.4s73.4-28.5 52.4-77.9c0 0-50.2-28.5-86.2 49.5l33.8 28.4z"/><path fill="#ED7B3A" d="M369.2 241.5s77.8 12.5 67.6 65.2c0 0-43.1 38.3-94.6-30.3l27-34.9z"/><path fill="#ED7B3A" d="M221.4 187.1l46.5 7.5s12.4-15.7-1.1-23.6c-13.6-7.9-45.4 16.1-45.4 16.1z"/><path fill="#ED7B3A" d="M221.4 334.2l46.5-7.5s12.4 15.7-1.1 23.6c-13.6 7.9-45.4-16.1-45.4-16.1z"/><path fill="#D96527" d="M102.3 266.7c1-5.9-20-7.1-19.5-8.6 6.7-21.6 59.6-65.4 131.9-71.4 43.5-3.6 93.3 17.9 146.1 69.7 0 0-64.6 82.9-150.6 80.3-37.7-1.1-108.1-16.6-126.8-66.7-1.1-2.9-1.2-3.8-.9-5.3.2-2 18.5 9.6 19.8 2z"/><path fill="#ED7B3A" d="M197.9 235.4c0 11-8.9 20-20 20-11 0-20-8.9-20-20 0-11 8.9-20 20-20s20 9 20 20z"/><path fill="#444545" d="M192.4 235.4c0 7.9-6.5 14.4-14.4 14.4-8 0-14.4-6.4-14.4-14.4 0-7.9 6.5-14.4 14.4-14.4s14.4 6.4 14.4 14.4z"/><path fill="#353535" d="M177.3 247.5c-6.7 0-12.2-5.5-12.2-12.2 0-6.7 5.4-12.2 12.2-12.2 6.7.1 6.7 24.4 0 24.4z"/><metadata><rdf:RDF xmlns:rdf="http://www.w3.org/1999/02/22-rdf-syntax-ns#" xmlns:rdfs="http://www.w3.org/2000/01/rdf-schema#" xmlns:dc="http://purl.org/dc/elements/1.1/"><rdf:Description about="https://iconscout.com/legal#licenses" dc:title="fish" dc:description="fish" dc:publisher="Iconscout" dc:date="2018-03-20" dc:format="image/svg+xml" dc:language="en"><dc:creator><rdf:Bag><rdf:li>Roundicons.com</rdf:li></rdf:Bag></dc:creator></rdf:Description></rdf:RDF></metadata></svg>