<?xml version="1.0" encoding="utf-8"?>
<!-- Generator: Adobe Illustrator 19.0.0, SVG Export Plug-In . SVG Version: 6.00 Build 0)  -->
<svg version="1.1" id="Layer_1" xmlns="http://www.w3.org/2000/svg" xmlns:xlink="http://www.w3.org/1999/xlink" x="0px" y="0px"
	 viewBox="-49 141 512 512" style="enable-background:new -49 141 512 512;" xml:space="preserve">
<style type="text/css">
	.st0{fill:#B2B0A1;}
	.st1{fill:#FFFFFF;}
	.st2{fill:#444545;}
	.st3{fill:#353535;}
</style>
<path class="st0" d="M352.2,378.2c0,0,105.8-41.1,75.5-112.2c0,0-72.3-41.1-124.2,71.3L352.2,378.2z"/>
<path class="st0" d="M364.3,356.8c0,0,112.1,18,97.4,93.9c0,0-62.1,55.2-136.3-43.7L364.3,356.8L364.3,356.8z"/>
<path class="st0" d="M151.3,278.4l67,10.8c0,0,17.9-22.6-1.6-34C197.1,243.8,151.3,278.4,151.3,278.4z"/>
<path class="st0" d="M151.3,490.3l67-10.8c0,0,17.9,22.6-1.6,34C197.1,524.9,151.3,490.3,151.3,490.3z"/>
<path class="st1" d="M-20.3,393.1c1.4-8.5-28.8-10.2-28.1-12.4c9.7-31.1,85.9-94.2,190-102.9c62.7-5.2,134.4,25.8,210.5,100.4
	c0,0-93.1,119.4-217,115.7C80.9,492.3-20.6,470-47.5,397.8c-1.6-4.2-1.7-5.5-1.3-7.6C-48.5,387.3-22.1,404-20.3,393.1L-20.3,393.1z"
	/>
<path class="st0" d="M117.5,348c0,15.8-12.8,28.8-28.8,28.8c-15.8,0-28.8-12.8-28.8-28.8c0-15.8,12.8-28.8,28.8-28.8
	S117.5,332.1,117.5,348z"/>
<path class="st2" d="M109.5,348c0,11.4-9.4,20.7-20.7,20.7c-11.5,0-20.7-9.2-20.7-20.7c0-11.4,9.4-20.7,20.7-20.7
	S109.5,336.5,109.5,348z"/>
<path class="st3" d="M87.8,365.4c-9.7,0-17.6-7.9-17.6-17.6c0-9.7,7.8-17.6,17.6-17.6C97.4,330.4,97.4,365.4,87.8,365.4z"/>
</svg>
