<?xml version="1.0" encoding="utf-8"?>
<!-- Generator: Adobe Illustrator 19.0.0, SVG Export Plug-In . SVG Version: 6.00 Build 0)  -->
<svg version="1.1" id="Layer_1" xmlns="http://www.w3.org/2000/svg" xmlns:xlink="http://www.w3.org/1999/xlink" x="0px" y="0px"
	 viewBox="9 82 630 630" style="enable-background:new 9 82 630 630;" xml:space="preserve">
<style type="text/css">
	.st0{fill:#FFFFFF;}
	.st1{fill:#B8B8B8;}
</style>
<g id="layer101">
	<path class="st0" d="M279.9,704.1c-149.3-0.7-158.2-0.9-161.7-3c-2.1-1.2-6.9-7-10.7-13s-14.2-21.8-23-35.4
		c-8.9-13.6-19.5-30-23.8-36.4l-7.7-11.7l-2.8-17.3C45.2,555.9,33.8,486,22,412.1c-3.2-19.6-7.4-45.8-9.4-58S9,329.6,9,326.7
		c0-6-0.2-5.7,24.1-32.5c21.2-23.4,36.3-40.1,65.3-72.2c12.2-13.6,33.1-36.5,46.4-51.1c13.2-14.6,29.6-32.7,36.4-40.2
		c35-39,43.2-47.8,45.2-48.9c4.1-2.1,11.1-1.1,39.7,5.8c15.8,3.7,38.9,9.3,51.5,12.3c12.6,3,35.3,8.5,50.6,12.2
		c15.3,3.7,48.9,11.7,74.7,17.9c52.2,12.5,96.4,23.1,103.2,24.8c2.5,0.6,6,2.3,7.9,3.8c3.2,2.5,14.9,25.3,43.2,84.3
		c3.6,7.5,11.8,24.7,18.5,38.3c6.5,13.6,13.3,27.6,15.1,31.3l3.2,6.7l2.2,67.6c1.2,37.1,2.3,77,2.6,88.4L639,496l-45.5,100.6
		c-30.9,68.5-46.5,101.8-49,104.3l-3.6,3.7l-51.6,0.1C461,704.7,366.8,704.5,279.9,704.1z"/>
</g>
<g id="layer102">
	<path class="st0" d="M260.5,703.1c5.6-0.2,14.7-0.2,20.4,0c5.6,0.1,1,0.4-10.2,0.4S254.8,703.2,260.5,703.1z"/>
	<path class="st0" d="M320.6,666.7c-24.9-8.3-33.9-25.8-26.3-51.5c3.5-11.8,11.7-20.9,21.3-23.6c14.7-4.1,32.7-0.4,39.6,8.3
		c2,2.5,4.2,5.2,4.9,5.9c0.9,0.7,2.7,3.8,4.3,6.9c2.3,4.4,2.8,7.3,2.8,16c-0.1,9.4-0.5,11.4-4.1,18.3c-4.3,8.6-8.5,12.7-17.9,17.6
		C338.6,668.4,328.1,669.3,320.6,666.7z"/>
	<path class="st0" d="M55.9,608.8c-1.5-2-2.6-3.9-2.2-4.2c0.2-0.2,1.6,1.5,3.2,3.8C60.3,613.6,59.5,614,55.9,608.8z"/>
	<path class="st0" d="M520.8,602.3c-1-1-6.4-10.2-12-20.5c-5.7-10.2-11-18.4-11.6-18.1c-0.7,0.4-9.9,6.4-20.4,13.7
		c-18.4,12.7-23,14.8-24.3,11.5c-0.2-0.9,2.8-10.5,7-21.2c4.2-10.9,7.9-21,8.1-22.6c0.5-2.2-1.9-5.2-13.1-16
		c-9.3-9-13.7-14.2-13.7-16c0-1.5,0.7-2.7,1.6-2.7c0.7-0.1,10.5,0,21.5,0l20.1,0.1l13-19.7c13.1-19.9,16.8-23.6,19.7-19.5
		c0.7,1.1,3.2,11,5.6,22.1c2.2,11.1,4.4,21,4.9,22c0.6,1,8.5,4.8,17.6,8.4c17,6.8,24.3,10.5,24.3,12.5c0,1.9-2.6,3.2-14.2,7.9
		c-19.6,7.8-22.8,9.4-23.4,12.3c-0.2,1.5-1.4,11.6-2.5,22.5C526.7,603.4,525.5,606.8,520.8,602.3z"/>
	<path class="st0" d="M119.3,535.1c-6.8-6.7-17.2-17.8-23.7-25.5c-4.8-5.8-18.1-26.7-24.1-37.6C58,446.5,51,412.2,51,370.2
		c0-48.1,16.8-87.2,53.7-124.6c14.8-15.1,50.4-36,77.5-45.9c15.3-5.6,21.8-6.7,42.3-7.4c21.7-0.7,34.8,0.9,54.8,6.5
		c50.5,14.7,77,38.3,103.8,92.4c17.8,36.2,22.6,62.9,17.6,98.2c-5.1,36.9-20.7,65-50.5,90.7c-15.1,13-34.8,23.9-50.8,28.4
		c-11.5,3.1-33.9,3.7-45.5,1.1c-15.3-3.3-33.3-12.6-51.1-26.4l-3.2-2.5l-5.4,5.1c-3.1,2.7-9.1,8.4-13.6,12.6
		c-4.4,4.2-16,15.1-25.9,24.2c-9.9,9.1-18.6,17.4-19.5,18.1C131.4,544.2,126.9,542.6,119.3,535.1z"/>
	<path class="st0" d="M636.3,418.3c0-3.3,0.2-4.7,0.5-2.7c0.2,1.9,0.2,4.6,0,6.2C636.5,423.2,636.3,421.7,636.3,418.3z"/>
	<path class="st0" d="M633.8,341.2c0-3.1,0.2-4.3,0.5-2.7c0.2,1.5,0.2,3.9,0,5.6C634.1,345.5,633.8,344.2,633.8,341.2z"/>
	<path class="st0" d="M613.9,280.1c-2.1-4.6-1.7-5.6,0.5-1.5c1.1,2,1.7,3.8,1.4,4.1C615.6,282.9,614.7,281.8,613.9,280.1z"/>
	<path class="st0" d="M224.7,83.6c1.6-1.6,3.5-2.8,4.3-2.8s0.4,0.7-1,1.5c-1.4,0.7-3.3,2-4.3,2.7C222.6,85.7,223.1,85.1,224.7,83.6z
		"/>
</g>
<g id="layer103">
	<path class="st1" d="M324.8,652.9c-6.3-1.6-12.1-5.4-15.9-10.2c-3.5-4.4-3.3-17,0.4-26.3c2.2-5.7,3.6-7.3,8.3-9.6
		c4.6-2.5,6.9-2.8,13.5-2.3c9.3,0.7,12.6,2.7,18.4,11.5c3.8,5.6,4.2,6.7,3.7,13.5c-0.6,9.9-4.1,16.4-11,20.5
		C335,654.1,331.7,654.7,324.8,652.9z"/>
	<path class="st1" d="M519.2,585.7c-0.7-1.1-2.8-4.8-4.7-8.3c-2-3.3-5.4-9.6-7.7-13.8c-2.3-4.1-5.2-7.9-6.3-8.3
		c-1.2-0.5-8,3.3-19.3,11c-16.4,11.1-19.7,12.8-17.4,9c0.6-0.9,1.1-2.1,1.4-2.8c0.1-0.6,2.5-7,5.3-14.2c2.8-7.2,5.2-14.3,5.2-15.9
		c0-2-3.2-6.2-11.5-14.4l-11.6-11.6h18h18l11.6-17.8c6.3-9.9,11.8-17.6,12.3-17.4c0.4,0.4,2.3,8.5,4.2,18.1
		c1.9,9.7,4.1,18.8,4.9,20.2c1,1.6,7.8,4.9,18.1,9.1c9,3.6,16.5,6.7,16.8,6.8c0.1,0.1-6.7,3.2-15.1,6.8c-11.7,4.9-15.5,7-15.9,9.1
		c-0.4,1.4-1.4,9.3-2.2,17.4c-0.7,8.1-1.9,15.8-2.2,16.9C520.5,587.8,520.4,587.8,519.2,585.7z"/>
	<path class="st1" d="M121.7,517.4c-22-22.6-40.5-52.9-47.8-78c-6.3-21.6-7.4-31.2-7.5-64.3c0-32.6,0.5-37,6.4-54.9
		c6.5-19.4,20.1-41.1,37.1-59.5c9.6-10.1,17-15.9,34.2-26.3c34.7-21.1,55.7-28.1,83.9-28.1c18.4,0,30.2,1.6,48.4,6.7
		c23,6.4,43.2,17.3,57.9,31.1c17.4,16.3,40.8,57.8,49.2,87.2c2.6,9.3,3.5,15.3,3.9,29.1c1.4,36-6.9,63.7-26.7,88.4
		c-17.6,22.2-42.6,39.6-65.4,45.7c-13.3,3.5-32.3,3.3-43.9-0.2c-31.2-9.9-61.7-37.6-73.2-66.8c-5.2-13.1-6.8-22.3-6.2-37.1
		c0.4-11.5,0.9-13.7,4.4-21.1c6.9-13.9,24.2-27.3,44.3-34.3c18.1-6.2,40.6,0.5,47.1,14.2c1.5,3,3.6,10.4,4.6,16.3
		c1.1,6,2.2,12.2,2.5,13.7c0.9,4.3,6,7.3,9.7,5.6c4.3-2,4.9-6.5,2.6-19.9c-2.3-13.1-6.3-23.9-10.7-29.5c-11-13.6-35-20.6-54.2-15.8
		c-10.9,2.7-27.1,10.6-37.3,18.1c-20,14.9-28.1,31.1-28.1,56s9.3,50.1,25.4,69.2l6.5,7.7l-18.8,17.8c-10.2,9.7-23.3,22-28.9,27.3
		c-5.6,5.2-10.5,9.5-11.1,9.5C129.7,525,125.9,521.6,121.7,517.4z"/>
</g>
</svg>
