<!DOCTYPE svg PUBLIC "-//W3C//DTD SVG 20010904//EN" "http://www.w3.org/TR/2001/REC-SVG-20010904/DTD/svg10.dtd">
<svg version="1.0" xmlns="http://www.w3.org/2000/svg" width="630px" height="630px" viewBox="0 0 6300 6300" preserveAspectRatio="xMidYMid meet">
<g id="layer101" fill="#5d5c96" stroke="none">
 <path d="M0 3150 l0 -3150 3150 0 3150 0 0 3150 0 3150 -3150 0 -3150 0 0 -3150z"/>
 </g>
<g id="layer102" fill="#5f6293" stroke="none">
 <path d="M0 3150 l0 -3150 3150 0 3150 0 0 3150 0 3150 -3150 0 -3150 0 0 -3150z m4035 2511 c22 0 226 2 453 4 l413 4 31 -30 c22 -21 31 -39 31 -62 0 -17 2 -26 5 -19 6 18 32 -19 38 -54 3 -14 14 -39 26 -54 11 -16 18 -36 15 -44 -4 -9 -3 -16 1 -16 5 0 14 -16 21 -35 7 -19 17 -35 22 -35 6 0 8 -4 4 -9 -3 -5 2 -16 10 -24 8 -9 15 -20 15 -26 0 -6 4 -19 10 -29 16 -28 72 -171 70 -178 -1 -4 3 -10 10 -14 6 -4 13 -13 15 -21 9 -38 18 -59 26 -59 5 0 9 -9 9 -20 0 -11 5 -20 10 -20 6 0 10 -4 10 -10 0 -5 11 -34 25 -64 14 -30 25 -61 25 -69 0 -8 9 -26 21 -41 11 -14 18 -26 15 -26 -3 0 8 -28 24 -62 17 -35 30 -69 30 -75 0 -7 3 -13 8 -13 8 0 38 -61 34 -72 -1 -5 3 -8 10 -8 6 0 8 -3 5 -6 -4 -4 0 -19 7 -33 8 -14 22 -46 32 -71 10 -25 26 -57 36 -72 10 -14 18 -32 18 -40 0 -7 6 -22 13 -33 7 -11 19 -39 27 -63 7 -23 19 -47 27 -53 7 -6 13 -18 13 -26 0 -8 6 -27 14 -41 21 -43 36 -93 24 -86 -6 4 -7 0 -1 -12 15 -32 -7 -941 -28 -1190 -7 -72 -9 -144 -6 -160 4 -21 -6 -51 -38 -116 -24 -47 -41 -89 -38 -92 4 -3 1 -6 -5 -6 -6 0 -13 -13 -17 -29 -3 -16 -13 -35 -21 -42 -8 -6 -14 -20 -14 -30 0 -11 -5 -19 -11 -19 -5 0 -7 -4 -4 -10 3 -5 1 -10 -4 -10 -6 0 -11 -5 -11 -11 0 -6 -16 -42 -35 -80 -19 -39 -35 -76 -35 -84 0 -7 -7 -20 -15 -29 -9 -8 -16 -19 -16 -23 -1 -15 -81 -168 -89 -171 -5 -2 -6 -10 -3 -19 4 -9 2 -14 -3 -11 -5 4 -10 -5 -11 -19 0 -14 -7 -29 -15 -34 -7 -5 -8 -9 -3 -9 6 0 6 -3 -1 -8 -5 -4 -18 -25 -28 -47 -10 -22 -34 -70 -52 -108 -19 -37 -34 -74 -34 -82 0 -8 -4 -15 -10 -15 -5 0 -12 -11 -16 -25 -3 -13 -25 -61 -48 -107 -36 -72 -45 -83 -67 -81 -13 1 -19 -1 -12 -3 7 -3 9 -12 6 -20 -3 -7 -9 -11 -14 -8 -5 3 -9 0 -9 -7 0 -7 -3 -10 -6 -7 -3 4 -20 2 -37 -4 -18 -6 -42 -10 -54 -9 -13 0 -23 -4 -23 -9 0 -6 -10 -10 -22 -10 -13 0 -68 -12 -123 -26 -55 -14 -118 -28 -140 -31 -22 -3 -41 -9 -43 -14 -2 -5 -17 -9 -33 -9 -17 0 -39 -5 -49 -10 -13 -7 -21 -7 -25 0 -8 14 -26 13 -22 -1 2 -11 -9 -15 -73 -25 -19 -3 -39 -10 -44 -15 -6 -5 -27 -9 -47 -9 -21 0 -41 -5 -44 -10 -3 -6 -21 -10 -40 -10 -19 0 -36 -4 -40 -10 -3 -5 -12 -7 -19 -4 -8 3 -28 -2 -45 -10 -19 -10 -32 -12 -36 -6 -3 6 -11 10 -16 10 -6 0 -8 -4 -5 -9 7 -11 -36 -24 -109 -33 -11 -2 -23 -7 -27 -12 -3 -5 -33 -10 -66 -10 -33 -1 -56 -4 -51 -7 6 -3 -34 -16 -88 -28 -54 -12 -107 -26 -118 -30 -48 -19 -104 -28 -115 -17 -7 7 -10 7 -10 -1 0 -6 -17 -14 -37 -18 -21 -4 -42 -10 -48 -13 -5 -3 -20 -7 -33 -8 -14 -2 -32 -6 -41 -10 -9 -4 -20 -8 -26 -9 -5 0 -17 -4 -25 -7 -14 -5 -95 -23 -145 -32 -11 -2 -20 -4 -20 -5 0 -2 -9 -4 -20 -6 -60 -10 -132 -28 -146 -35 -9 -5 -36 -12 -60 -15 -24 -4 -47 -9 -52 -12 -4 -3 -23 -7 -40 -10 -18 -3 -39 -9 -48 -14 -9 -4 -19 -6 -22 -3 -5 5 -74 -11 -112 -26 -25 -11 -70 -20 -114 -23 -28 -2 -43 6 -93 50 -32 29 -57 53 -54 53 2 0 -25 30 -60 66 -35 37 -64 71 -64 75 0 5 -9 17 -21 28 -12 11 -18 24 -15 29 3 6 -2 9 -11 8 -10 -2 -28 12 -44 33 -14 20 -37 45 -52 56 -21 15 -24 22 -14 34 10 12 9 13 -1 7 -9 -6 -25 3 -48 25 -19 18 -34 37 -34 41 0 4 -9 17 -20 28 -12 12 -18 26 -14 32 4 6 3 8 -4 5 -10 -7 -50 30 -134 121 -21 23 -38 44 -38 48 0 4 -12 18 -27 31 -21 20 -23 27 -12 34 12 7 12 9 -1 10 -8 1 -18 1 -21 1 -4 -1 -17 10 -29 23 -19 20 -21 27 -10 40 7 9 8 15 2 15 -6 0 -12 -5 -14 -12 -2 -6 -22 8 -44 32 -21 24 -61 66 -89 93 -27 28 -50 53 -50 57 0 3 -28 33 -61 66 -34 34 -65 70 -68 81 -4 11 -18 25 -32 32 -14 6 -22 15 -19 21 3 5 -4 14 -15 20 -11 6 -20 17 -20 25 0 8 -4 15 -9 15 -9 0 -61 46 -61 54 0 6 -70 82 -148 161 -35 35 -61 69 -57 74 3 6 3 11 -2 11 -11 0 -71 59 -113 110 -19 24 -64 73 -98 109 -71 71 -102 121 -97 154 6 53 18 97 25 97 5 0 6 17 3 38 -2 20 0 64 7 97 6 33 12 71 14 85 8 63 19 122 36 210 10 52 22 127 26 165 3 39 10 75 15 81 5 6 9 26 9 45 0 19 2 45 4 59 2 14 5 31 5 38 1 7 5 11 10 8 5 -3 9 11 8 32 -1 56 12 145 23 156 14 14 13 29 -2 20 -8 -5 -9 -2 -4 11 3 10 9 34 12 54 2 20 7 52 11 71 11 57 14 74 16 93 1 9 5 17 10 17 4 0 6 3 3 8 -4 7 18 190 29 242 3 14 8 41 10 60 12 94 17 112 26 99 7 -11 9 -11 9 3 0 9 -4 19 -9 22 -12 8 -2 46 13 46 6 0 6 4 -3 9 -10 7 -11 13 -1 31 6 12 9 28 6 35 -3 8 -1 17 3 20 5 3 9 30 10 60 0 30 5 63 10 73 6 11 13 49 17 86 4 36 11 66 15 66 5 0 8 6 7 13 -2 6 3 11 10 9 8 -1 11 2 8 7 -4 5 5 23 19 39 14 16 25 37 25 46 0 9 4 16 8 16 5 0 17 17 28 38 10 20 31 53 46 73 16 20 28 42 28 48 0 6 5 11 10 11 6 0 10 6 10 13 0 7 13 26 28 43 15 17 26 36 24 42 -2 7 1 12 7 12 6 0 11 7 11 15 0 8 5 15 10 15 6 0 10 7 10 15 0 8 5 15 10 15 6 0 10 5 10 10 0 6 9 21 20 32 11 12 29 41 41 65 11 24 24 43 28 43 4 0 17 19 29 43 11 23 31 53 44 67 13 13 22 28 20 33 -1 4 8 11 21 16 13 5 381 12 818 16 436 3 796 8 798 11 3 3 206 3 451 0 245 -3 463 -5 485 -5z"/>
 <path d="M4198 5653 c12 -2 30 -2 40 0 9 3 -1 5 -23 4 -22 0 -30 -2 -17 -4z"/>
 <path d="M4273 5653 c9 -2 25 -2 35 0 9 3 1 5 -18 5 -19 0 -27 -2 -17 -5z"/>
 <path d="M4428 5653 c17 -2 47 -2 65 0 17 2 3 4 -33 4 -36 0 -50 -2 -32 -4z"/>
 <path d="M4498 5633 c12 -2 32 -2 45 0 12 2 2 4 -23 4 -25 0 -35 -2 -22 -4z"/>
 <path d="M3192 5424 c-12 -13 -10 -14 12 -8 14 3 38 3 54 -1 l27 -8 -30 -8 c-16 -5 -42 -7 -56 -4 -17 4 -32 0 -43 -10 -9 -10 -24 -14 -33 -11 -8 4 -21 2 -27 -3 -6 -5 -20 -11 -31 -13 -11 -1 -27 -11 -36 -20 -8 -9 -21 -18 -29 -20 -17 -4 -70 -62 -70 -76 0 -6 -5 -12 -11 -14 -11 -4 -29 -77 -34 -138 -2 -38 11 -122 25 -155 12 -29 23 -59 24 -66 2 -12 89 -94 100 -94 6 -1 10 -5 9 -11 -2 -11 0 -12 122 -22 50 -4 96 -11 103 -15 8 -5 12 -2 12 9 0 13 6 15 33 11 17 -3 26 -3 19 0 -9 3 2 13 27 24 23 10 41 22 41 27 0 5 15 26 33 46 23 24 42 36 60 36 15 0 27 4 27 9 0 5 -12 7 -27 5 -23 -4 -26 -3 -15 7 6 7 12 23 12 36 0 13 6 23 13 23 19 0 17 191 -3 214 -12 15 -12 19 1 27 11 7 11 9 1 9 -16 0 -42 24 -42 39 0 6 -4 11 -9 11 -5 0 -13 9 -16 20 -3 11 -10 20 -15 20 -15 0 -58 48 -51 56 3 4 1 4 -5 1 -6 -3 -23 1 -38 9 -16 7 -38 14 -50 15 -19 1 -18 2 4 8 l25 7 -25 16 c-38 24 -73 29 -88 12z"/>
 <path d="M2961 5344 c0 -11 3 -14 6 -6 3 7 2 16 -1 19 -3 4 -6 -2 -5 -13z"/>
 <path d="M2985 5340 c-3 -5 -2 -10 4 -10 5 0 13 5 16 10 3 6 2 10 -4 10 -5 0 -13 -4 -16 -10z"/>
 <path d="M3413 5313 c4 -3 10 -3 14 0 3 4 0 7 -7 7 -7 0 -10 -3 -7 -7z"/>
 <path d="M2893 5273 c4 -3 10 -3 14 0 3 4 0 7 -7 7 -7 0 -10 -3 -7 -7z"/>
 <path d="M3470 5250 c0 -7 3 -10 7 -7 3 4 3 10 0 14 -4 3 -7 0 -7 -7z"/>
 <path d="M2893 5243 c4 -3 10 -3 14 0 3 4 0 7 -7 7 -7 0 -10 -3 -7 -7z"/>
 <path d="M5121 5204 c0 -11 3 -14 6 -6 3 7 2 16 -1 19 -3 4 -6 -2 -5 -13z"/>
 <path d="M2900 4920 c0 -7 3 -10 7 -7 3 4 3 10 0 14 -4 3 -7 0 -7 -7z"/>
 <path d="M3503 4923 c4 -3 10 -3 14 0 3 4 0 7 -7 7 -7 0 -10 -3 -7 -7z"/>
 <path d="M4726 4852 c4 -19 -1 -34 -14 -50 -11 -12 -25 -36 -32 -52 -10 -25 -15 -28 -27 -18 -12 10 -13 7 -8 -13 3 -15 -2 -35 -15 -54 -11 -16 -20 -24 -20 -16 0 8 -3 11 -6 8 -4 -4 -1 -13 6 -22 7 -8 8 -15 2 -15 -5 0 -15 -13 -22 -30 -7 -16 -20 -31 -29 -31 -30 -2 -46 3 -54 17 -5 8 -12 12 -18 9 -5 -4 -9 3 -9 14 0 12 -5 21 -11 21 -5 0 -7 -5 -3 -12 4 -7 -6 -2 -23 10 -17 12 -36 22 -42 22 -6 0 -11 5 -11 10 0 6 -8 13 -17 17 -10 3 -28 17 -40 31 -13 14 -23 22 -23 18 0 -4 -12 2 -26 13 -15 11 -30 18 -35 15 -5 -3 -9 -1 -9 4 0 15 -62 24 -74 11 -8 -8 -4 -9 14 -4 16 4 20 3 12 -3 -7 -5 -11 -15 -9 -23 22 -73 42 -129 48 -129 8 0 23 -68 20 -87 -1 -7 4 -13 11 -13 8 -1 5 -6 -6 -15 -11 -8 -16 -18 -11 -22 4 -5 10 -2 12 5 9 23 21 12 34 -33 7 -25 17 -45 21 -45 20 0 6 -30 -14 -31 -13 0 -17 -3 -11 -6 18 -7 -94 -114 -115 -111 -11 2 -17 -4 -17 -17 0 -27 -17 -47 -27 -31 -5 7 -8 3 -8 -9 0 -11 -9 -28 -20 -38 -12 -10 -19 -26 -16 -39 3 -19 9 -22 32 -20 58 6 141 7 226 2 48 -3 84 -1 81 4 -3 5 0 7 7 4 8 -2 18 -13 24 -23 6 -11 17 -25 24 -33 6 -7 12 -16 12 -18 0 -3 -6 -2 -12 1 -7 4 -5 0 5 -8 14 -11 15 -16 5 -20 -9 -4 -8 -6 3 -6 23 -1 52 -37 46 -56 -5 -10 0 -15 13 -15 11 0 20 -7 20 -15 0 -8 5 -15 10 -15 6 0 10 -5 10 -11 0 -5 -6 -7 -12 -4 -7 4 -3 -2 8 -12 24 -20 50 -63 46 -76 -1 -5 2 -6 8 -2 5 3 10 1 10 -4 0 -6 18 -11 40 -11 37 0 39 2 45 38 4 20 10 46 15 58 4 12 12 48 16 80 5 46 9 55 16 39 7 -16 7 -15 3 7 -7 36 14 128 28 128 7 0 6 4 -3 10 -13 8 -13 10 2 10 9 0 18 5 20 10 2 6 13 12 26 13 12 0 22 4 22 7 0 12 61 31 82 25 13 -4 20 -4 15 0 -9 10 68 55 99 57 13 1 24 6 24 10 0 4 9 8 19 8 19 0 31 18 31 46 0 8 -12 19 -27 24 -16 6 -37 15 -48 21 -12 5 -27 11 -35 13 -38 8 -90 37 -84 48 4 7 3 8 -5 4 -6 -4 -32 1 -56 11 -38 15 -46 24 -51 51 -4 19 -1 45 5 59 9 20 9 29 0 37 -9 8 -10 8 -5 -1 4 -7 3 -20 -2 -29 -8 -14 -10 -14 -14 4 -3 12 -6 56 -7 99 -2 132 -28 223 -66 223 -5 0 -3 -5 5 -10 12 -8 10 -10 -8 -10 -13 0 -20 4 -17 10 3 6 2 10 -4 10 -6 0 -8 -12 -5 -28z"/>
 <path d="M5300 4810 c0 -7 3 -10 7 -7 3 4 3 10 0 14 -4 3 -7 0 -7 -7z"/>
 <path d="M4160 4796 c0 -2 7 -7 16 -10 8 -3 12 -2 9 4 -6 10 -25 14 -25 6z"/>
 <path d="M4850 4790 c0 -7 3 -10 7 -7 3 4 3 10 0 14 -4 3 -7 0 -7 -7z"/>
 <path d="M4670 4770 c0 -7 3 -10 7 -7 3 4 3 10 0 14 -4 3 -7 0 -7 -7z"/>
 <path d="M3373 4763 c4 -3 10 -3 14 0 3 4 0 7 -7 7 -7 0 -10 -3 -7 -7z"/>
 <path d="M4650 4760 c0 -7 3 -10 7 -7 3 4 3 10 0 14 -4 3 -7 0 -7 -7z"/>
 <path d="M4160 4716 c0 -9 5 -16 10 -16 6 0 10 4 10 9 0 6 -4 13 -10 16 -5 3 -10 -1 -10 -9z"/>
 <path d="M4363 4713 c4 -3 10 -3 14 0 3 4 0 7 -7 7 -7 0 -10 -3 -7 -7z"/>
 <path d="M4391 4704 c0 -11 3 -14 6 -6 3 7 2 16 -1 19 -3 4 -6 -2 -5 -13z"/>
 <path d="M4355 4690 c-3 -5 -2 -10 4 -10 5 0 13 5 16 10 3 6 2 10 -4 10 -5 0 -13 -4 -16 -10z"/>
 <path d="M941 4654 c0 -11 3 -14 6 -6 3 7 2 16 -1 19 -3 4 -6 -2 -5 -13z"/>
 <path d="M4190 4650 c0 -7 3 -10 7 -7 3 4 3 10 0 14 -4 3 -7 0 -7 -7z"/>
 <path d="M4830 4630 c0 -7 3 -10 7 -7 3 4 3 10 0 14 -4 3 -7 0 -7 -7z"/>
 <path d="M4201 4604 c0 -11 3 -14 6 -6 3 7 2 16 -1 19 -3 4 -6 -2 -5 -13z"/>
 <path d="M4577 4613 c-4 -3 -7 -11 -7 -17 0 -6 5 -5 12 2 6 6 9 14 7 17 -3 3 -9 2 -12 -2z"/>
 <path d="M4904 4458 c-4 -7 -3 -8 4 -4 12 7 16 16 8 16 -3 0 -8 -5 -12 -12z"/>
 <path d="M4936 4445 c-11 -8 -15 -15 -9 -15 6 0 16 7 23 15 16 19 11 19 -14 0z"/>
 <path d="M922 4430 c0 -14 2 -19 5 -12 2 6 2 18 0 25 -3 6 -5 1 -5 -13z"/>
 <path d="M4240 4441 c0 -6 5 -13 10 -16 6 -3 10 1 10 9 0 9 -4 16 -10 16 -5 0 -10 -4 -10 -9z"/>
 <path d="M4271 4434 c0 -11 3 -14 6 -6 3 7 2 16 -1 19 -3 4 -6 -2 -5 -13z"/>
 <path d="M5035 4390 c3 -5 10 -10 16 -10 5 0 9 5 9 10 0 6 -7 10 -16 10 -8 0 -12 -4 -9 -10z"/>
 <path d="M1545 4359 c-22 -12 -62 -48 -90 -80 -37 -43 -55 -57 -70 -54 -11 3 -14 2 -7 -1 6 -3 12 -10 12 -15 0 -12 -61 -69 -73 -69 -4 0 -5 -4 -2 -10 3 -5 0 -10 -7 -10 -8 0 -14 -9 -15 -20 -2 -24 -61 -90 -80 -90 -7 0 -13 -5 -13 -11 0 -5 4 -7 10 -4 5 3 -7 -21 -27 -54 -25 -40 -40 -56 -46 -48 -5 7 -6 3 -2 -9 3 -13 0 -28 -9 -37 -8 -8 -12 -17 -9 -21 3 -3 -2 -8 -11 -12 -9 -3 -13 -10 -10 -15 3 -5 -2 -12 -11 -15 -9 -4 -14 -12 -12 -18 3 -7 -3 -30 -14 -52 -10 -21 -18 -47 -19 -56 0 -10 -4 -18 -10 -18 -5 0 -10 -9 -10 -20 0 -18 -20 -26 -52 -21 -5 0 -8 -9 -8 -22 0 -12 3 -17 8 -11 11 18 43 13 37 -5 -13 -44 -35 -141 -41 -181 -14 -94 -16 -121 -24 -320 -5 -113 -12 -218 -15 -235 -4 -18 -3 -25 2 -18 6 8 12 -6 19 -42 7 -42 7 -52 -3 -44 -6 6 -14 20 -16 32 -4 22 -4 22 -6 -1 0 -13 8 -32 19 -44 11 -12 20 -29 20 -38 0 -13 26 -117 44 -175 15 -50 78 -175 87 -175 5 0 6 -7 3 -15 -4 -8 1 -17 10 -21 9 -3 16 -12 16 -19 0 -7 11 -23 25 -36 13 -13 25 -29 25 -36 0 -6 6 -18 13 -25 34 -35 56 -71 50 -82 -3 -6 -3 -8 1 -4 4 4 22 -9 39 -29 23 -26 27 -37 18 -43 -9 -5 -10 -10 -3 -14 6 -3 13 -2 16 3 4 5 31 -17 62 -50 31 -32 61 -56 65 -53 8 5 13 -10 10 -29 -1 -5 3 -6 8 -3 5 4 12 -2 14 -11 4 -17 5 -17 6 0 1 13 4 15 14 8 56 -46 76 -61 86 -61 6 0 11 -4 11 -10 0 -13 56 -41 65 -32 5 4 5 1 1 -5 -4 -7 -2 -13 3 -13 6 0 13 0 16 0 9 0 42 -35 39 -41 -2 -3 10 -6 27 -7 32 -1 62 -19 54 -32 -3 -5 -1 -11 5 -15 5 -3 10 -1 10 4 0 7 6 8 18 3 101 -50 237 -103 245 -95 3 3 11 2 18 -3 9 -5 7 -9 -7 -15 -11 -4 3 -6 34 -4 30 1 66 -1 80 -5 75 -23 117 -26 228 -18 66 5 126 9 134 9 8 0 47 5 86 11 53 8 77 7 95 -1 21 -11 22 -11 7 2 -10 8 -18 17 -18 20 0 6 63 17 117 19 23 1 38 5 32 8 -14 9 38 31 56 24 10 -4 15 -2 13 6 -2 7 3 15 11 18 10 3 12 0 8 -12 -4 -11 -1 -16 9 -16 10 0 14 6 11 14 -4 9 6 20 28 30 18 9 36 16 39 16 4 0 25 12 49 27 23 15 50 26 59 25 10 0 22 7 28 17 5 10 21 26 36 36 22 14 28 15 36 4 7 -11 8 -11 6 1 -2 16 148 174 155 162 2 -4 2 -1 1 6 -2 7 2 15 9 18 7 2 14 14 14 26 1 12 9 26 18 30 8 5 15 16 15 24 0 8 7 17 15 20 8 3 20 21 27 39 6 19 15 32 20 29 7 -5 9 1 8 21 -1 3 6 13 15 21 8 9 15 22 15 30 0 8 4 14 10 14 5 0 7 -8 4 -17 -5 -14 -4 -15 4 -4 5 7 7 22 5 32 -3 11 0 19 6 19 7 0 9 5 6 10 -3 6 4 14 17 19 13 6 18 10 11 10 -7 1 -10 8 -7 16 4 8 10 12 16 9 5 -3 9 0 7 7 -3 28 1 40 13 33 8 -5 9 -2 5 11 -5 11 1 31 13 52 11 19 22 45 24 56 2 12 9 21 15 19 7 -1 11 3 10 10 -3 26 3 73 8 61 2 -7 9 -13 14 -13 14 0 11 28 -3 33 -10 3 -10 7 0 20 8 9 11 20 8 26 -3 5 1 22 9 37 8 16 15 40 15 54 0 14 3 43 7 65 5 32 8 36 15 20 5 -12 6 -1 2 30 -12 98 -10 280 4 277 6 -1 12 3 12 9 0 7 -9 9 -21 6 -20 -5 -21 -3 -16 34 3 21 1 37 -3 34 -4 -3 -11 2 -14 11 -3 8 -2 12 4 9 14 -9 13 8 -2 23 -6 6 -11 32 -11 56 0 25 -4 43 -8 40 -4 -2 -15 17 -25 43 -10 27 -24 54 -31 61 -7 7 -13 19 -13 25 0 7 4 6 10 -3 5 -8 10 -11 10 -7 0 7 -29 57 -40 67 -7 7 -30 49 -30 55 0 4 5 3 10 0 6 -3 10 -1 10 4 0 6 -6 11 -14 11 -19 0 -77 80 -69 94 3 6 3 8 -2 4 -8 -8 -65 58 -65 75 0 6 -3 8 -6 4 -9 -9 -56 51 -49 63 3 5 1 10 -4 10 -6 0 -11 -4 -11 -9 0 -5 -18 7 -40 26 -22 20 -37 40 -33 46 3 6 1 7 -5 3 -7 -4 -12 0 -13 11 0 17 -1 17 -7 1 -6 -15 -10 -13 -31 12 -13 17 -27 27 -32 24 -5 -3 -9 0 -9 5 0 6 -9 11 -21 11 -11 0 -18 4 -15 9 6 9 -36 31 -60 31 -8 0 -12 4 -9 10 3 5 -15 15 -40 21 -25 6 -45 15 -45 20 0 5 -7 9 -15 9 -8 0 -15 5 -15 10 0 6 -6 10 -12 9 -24 -3 -34 1 -56 21 -12 12 -22 16 -22 11 0 -6 8 -15 18 -21 16 -11 16 -11 -1 -6 -145 46 -350 47 -443 4 -12 -6 -33 -11 -48 -11 -14 -1 -26 -6 -26 -11 0 -4 -7 -5 -16 -2 -8 3 -13 2 -10 -2 3 -5 -11 -16 -30 -24 -28 -13 -34 -13 -30 -3 3 9 0 12 -10 8 -8 -3 -13 -13 -12 -21 2 -9 -1 -17 -7 -17 -13 0 -113 -67 -142 -95 -13 -11 -23 -16 -23 -10 0 5 -5 10 -11 10 -6 0 -9 -7 -5 -15 4 -10 -1 -15 -15 -15 -11 0 -24 10 -29 23 -5 12 -9 18 -9 13 -1 -4 -21 13 -46 38 -25 25 -50 46 -56 46 -6 0 -7 5 -4 10 3 6 1 10 -5 10 -6 0 -26 16 -44 36 -24 26 -32 43 -28 60 2 13 0 24 -6 24 -6 0 -8 -9 -5 -20 8 -31 -9 -24 -55 24 -29 30 -39 46 -30 50 7 3 4 4 -7 3 -12 -1 -19 3 -17 11 1 8 -1 11 -6 8 -5 -3 -18 5 -29 17 -28 32 -67 63 -77 62 -5 0 -14 9 -20 20 -13 23 -47 51 -58 47 -5 -1 -8 3 -8 8 0 14 -10 12 -55 -11z"/>
 <path d="M4253 4373 c4 -3 10 -3 14 0 3 4 0 7 -7 7 -7 0 -10 -3 -7 -7z"/>
 <path d="M4283 4373 c4 -3 10 -3 14 0 3 4 0 7 -7 7 -7 0 -10 -3 -7 -7z"/>
 <path d="M5160 4330 c0 -7 3 -10 7 -7 3 4 3 10 0 14 -4 3 -7 0 -7 -7z"/>
 <path d="M1727 4313 c-10 -9 -9 -23 1 -23 5 0 9 7 9 15 0 17 -1 18 -10 8z"/>
 <path d="M1751 4304 c0 -11 3 -14 6 -6 3 7 2 16 -1 19 -3 4 -6 -2 -5 -13z"/>
 <path d="M4236 4308 c3 -5 10 -6 15 -3 13 9 11 12 -6 12 -8 0 -12 -4 -9 -9z"/>
 <path d="M4180 4290 c0 -5 5 -10 10 -10 6 0 10 5 10 10 0 6 -4 10 -10 10 -5 0 -10 -4 -10 -10z"/>
 <path d="M4117 4224 c3 -7 9 -14 14 -14 14 0 10 17 -5 23 -10 4 -13 1 -9 -9z"/>
 <path d="M5520 4230 c0 -7 3 -10 7 -7 3 4 3 10 0 14 -4 3 -7 0 -7 -7z"/>
 <path d="M5023 4203 c4 -3 10 -3 14 0 3 4 0 7 -7 7 -7 0 -10 -3 -7 -7z"/>
 <path d="M5023 4183 c4 -3 10 -3 14 0 3 4 0 7 -7 7 -7 0 -10 -3 -7 -7z"/>
 <path d="M860 4170 c0 -7 3 -10 7 -7 3 4 3 10 0 14 -4 3 -7 0 -7 -7z"/>
 <path d="M4953 4173 c4 -3 10 -3 14 0 3 4 0 7 -7 7 -7 0 -10 -3 -7 -7z"/>
 <path d="M4993 4173 c4 -3 10 -3 14 0 3 4 0 7 -7 7 -7 0 -10 -3 -7 -7z"/>
 <path d="M4093 4163 c4 -3 10 -3 14 0 3 4 0 7 -7 7 -7 0 -10 -3 -7 -7z"/>
 <path d="M4913 4163 c4 -3 10 -3 14 0 3 4 0 7 -7 7 -7 0 -10 -3 -7 -7z"/>
 <path d="M5023 4163 c4 -3 10 -3 14 0 3 4 0 7 -7 7 -7 0 -10 -3 -7 -7z"/>
 <path d="M2865 4150 c28 -12 45 -12 45 0 0 6 -15 10 -32 9 -28 0 -30 -2 -13 -9z"/>
 <path d="M1880 4140 c0 -7 3 -10 7 -7 3 4 3 10 0 14 -4 3 -7 0 -7 -7z"/>
 <path d="M2888 4123 c6 -2 18 -2 25 0 6 3 1 5 -13 5 -14 0 -19 -2 -12 -5z"/>
 <path d="M2483 4103 c4 -3 10 -3 14 0 3 4 0 7 -7 7 -7 0 -10 -3 -7 -7z"/>
 <path d="M1213 4073 c4 -3 10 -3 14 0 3 4 0 7 -7 7 -7 0 -10 -3 -7 -7z"/>
 <path d="M3103 4053 c4 -3 10 -3 14 0 3 4 0 7 -7 7 -7 0 -10 -3 -7 -7z"/>
 <path d="M1200 4030 c0 -7 3 -10 7 -7 3 4 3 10 0 14 -4 3 -7 0 -7 -7z"/>
 <path d="M3153 4033 c4 -3 10 -3 14 0 3 4 0 7 -7 7 -7 0 -10 -3 -7 -7z"/>
 <path d="M859 4013 c-13 -16 -12 -17 4 -4 9 7 17 15 17 17 0 8 -8 3 -21 -13z"/>
 <path d="M2160 3970 c0 -7 3 -10 7 -7 3 4 3 10 0 14 -4 3 -7 0 -7 -7z"/>
 <path d="M2240 3972 c0 -7 -6 -12 -14 -12 -8 0 -17 -4 -20 -9 -4 -5 3 -7 14 -4 22 6 35 21 26 30 -3 4 -6 1 -6 -5z"/>
 <path d="M4500 3970 c0 -7 3 -10 7 -7 3 4 3 10 0 14 -4 3 -7 0 -7 -7z"/>
 <path d="M4493 3923 c4 -3 10 -3 14 0 3 4 0 7 -7 7 -7 0 -10 -3 -7 -7z"/>
 <path d="M2123 3913 c4 -3 10 -3 14 0 3 4 0 7 -7 7 -7 0 -10 -3 -7 -7z"/>
 <path d="M3410 3870 c0 -7 3 -10 7 -7 3 4 3 10 0 14 -4 3 -7 0 -7 -7z"/>
 <path d="M4561 3804 c0 -11 3 -14 6 -6 3 7 2 16 -1 19 -3 4 -6 -2 -5 -13z"/>
 <path d="M3513 3753 c4 -3 10 -3 14 0 3 4 0 7 -7 7 -7 0 -10 -3 -7 -7z"/>
 <path d="M1050 3730 c0 -7 3 -10 7 -7 3 4 3 10 0 14 -4 3 -7 0 -7 -7z"/>
 <path d="M780 3530 c0 -7 3 -10 7 -7 3 4 3 10 0 14 -4 3 -7 0 -7 -7z"/>
 <path d="M3740 3406 c0 -9 5 -16 10 -16 6 0 10 4 10 9 0 6 -4 13 -10 16 -5 3 -10 -1 -10 -9z"/>
 <path d="M3743 3363 c4 -3 10 -3 14 0 3 4 0 7 -7 7 -7 0 -10 -3 -7 -7z"/>
 <path d="M936 3285 c-9 -26 -7 -32 5 -12 6 10 9 21 6 23 -2 3 -7 -2 -11 -11z"/>
 <path d="M891 3224 c0 -11 3 -14 6 -6 3 7 2 16 -1 19 -3 4 -6 -2 -5 -13z"/>
 <path d="M912 3090 c1 -16 5 -27 10 -24 11 7 10 54 -1 54 -5 0 -9 -13 -9 -30z"/>
 <path d="M3820 3055 c0 -8 5 -15 10 -15 6 0 10 7 10 15 0 8 -4 15 -10 15 -5 0 -10 -7 -10 -15z"/>
 <path d="M902 2960 c0 -62 2 -76 8 -52 4 18 4 56 0 85 -7 48 -8 45 -8 -33z"/>
 <path d="M3830 2970 c0 -7 3 -10 7 -7 3 4 3 10 0 14 -4 3 -7 0 -7 -7z"/>
 <path d="M5630 2970 c0 -7 3 -10 7 -7 3 4 3 10 0 14 -4 3 -7 0 -7 -7z"/>
 <path d="M710 2940 c0 -7 3 -10 7 -7 3 4 3 10 0 14 -4 3 -7 0 -7 -7z"/>
 <path d="M3781 2654 c0 -11 3 -14 6 -6 3 7 2 16 -1 19 -3 4 -6 -2 -5 -13z"/>
 <path d="M5620 2550 c0 -7 3 -10 7 -7 3 4 3 10 0 14 -4 3 -7 0 -7 -7z"/>
 <path d="M5540 2470 c0 -7 3 -10 7 -7 3 4 3 10 0 14 -4 3 -7 0 -7 -7z"/>
 <path d="M1000 2450 c0 -7 3 -10 7 -7 3 4 3 10 0 14 -4 3 -7 0 -7 -7z"/>
 <path d="M1050 2350 c0 -7 3 -10 7 -7 3 4 3 10 0 14 -4 3 -7 0 -7 -7z"/>
 <path d="M1120 2192 c0 -5 7 -9 15 -9 8 0 15 4 15 9 0 4 -7 8 -15 8 -8 0 -15 -4 -15 -8z"/>
 <path d="M1133 2163 c4 -3 10 -3 14 0 3 4 0 7 -7 7 -7 0 -10 -3 -7 -7z"/>
 <path d="M3573 2163 c4 -3 10 -3 14 0 3 4 0 7 -7 7 -7 0 -10 -3 -7 -7z"/>
 <path d="M5440 2150 c0 -7 3 -10 7 -7 3 4 3 10 0 14 -4 3 -7 0 -7 -7z"/>
 <path d="M1245 2050 c3 -5 8 -10 11 -10 3 0 2 5 -1 10 -3 6 -8 10 -11 10 -3 0 -2 -4 1 -10z"/>
 <path d="M3490 2032 c0 -5 7 -9 15 -9 8 0 12 4 9 9 -3 4 -9 8 -15 8 -5 0 -9 -4 -9 -8z"/>
 <path d="M1194 1998 c-4 -7 -3 -8 4 -4 12 7 16 16 8 16 -3 0 -8 -5 -12 -12z"/>
 <path d="M3498 2003 c7 -3 16 -2 19 1 4 3 -2 6 -13 5 -11 0 -14 -3 -6 -6z"/>
 <path d="M3380 1895 c-8 -9 -8 -15 -2 -15 12 0 26 19 19 26 -2 2 -10 -2 -17 -11z"/>
 <path d="M1380 1860 c0 -7 3 -10 7 -7 3 4 3 10 0 14 -4 3 -7 0 -7 -7z"/>
 <path d="M3295 1810 c-3 -5 1 -10 9 -10 9 0 16 5 16 10 0 6 -4 10 -9 10 -6 0 -13 -4 -16 -10z"/>
 <path d="M1563 1763 c4 -3 10 -3 14 0 3 4 0 7 -7 7 -7 0 -10 -3 -7 -7z"/>
 <path d="M1633 1723 c4 -3 10 -3 14 0 3 4 0 7 -7 7 -7 0 -10 -3 -7 -7z"/>
 <path d="M3190 1710 c0 -7 3 -10 7 -7 3 4 3 10 0 14 -4 3 -7 0 -7 -7z"/>
 <path d="M1674 1688 c-4 -7 -3 -8 4 -4 12 7 16 16 8 16 -3 0 -8 -5 -12 -12z"/>
 <path d="M3120 1689 c0 -5 5 -7 10 -4 6 3 10 8 10 11 0 2 -4 4 -10 4 -5 0 -10 -5 -10 -11z"/>
 <path d="M1761 1664 c0 -11 3 -14 6 -6 3 7 2 16 -1 19 -3 4 -6 -2 -5 -13z"/>
 <path d="M3035 1640 c-3 -6 1 -7 9 -4 18 7 21 14 7 14 -6 0 -13 -4 -16 -10z"/>
 <path d="M5140 1590 c0 -7 3 -10 7 -7 3 4 3 10 0 14 -4 3 -7 0 -7 -7z"/>
 <path d="M1950 1566 c0 -2 13 -6 29 -8 17 -2 28 -1 25 4 -5 8 -54 12 -54 4z"/>
 <path d="M1990 1530 c-12 -8 -11 -10 8 -10 12 0 22 5 22 10 0 13 -11 13 -30 0z"/>
 <path d="M2783 1533 c4 -3 10 -3 14 0 3 4 0 7 -7 7 -7 0 -10 -3 -7 -7z"/>
 <path d="M1650 1480 c0 -7 3 -10 7 -7 3 4 3 10 0 14 -4 3 -7 0 -7 -7z"/>
 <path d="M5040 1430 c0 -7 3 -10 7 -7 3 4 3 10 0 14 -4 3 -7 0 -7 -7z"/>
 <path d="M5060 1429 c0 -5 5 -7 10 -4 6 3 10 8 10 11 0 2 -4 4 -10 4 -5 0 -10 -5 -10 -11z"/>
 <path d="M4963 1273 c4 -3 10 -3 14 0 3 4 0 7 -7 7 -7 0 -10 -3 -7 -7z"/>
 <path d="M4563 1153 c4 -3 10 -3 14 0 3 4 0 7 -7 7 -7 0 -10 -3 -7 -7z"/>
 <path d="M1933 1113 c4 -3 10 -3 14 0 3 4 0 7 -7 7 -7 0 -10 -3 -7 -7z"/>
 <path d="M4228 1073 c7 -3 16 -2 19 1 4 3 -2 6 -13 5 -11 0 -14 -3 -6 -6z"/>
 <path d="M2973 793 c4 -3 10 -3 14 0 3 4 0 7 -7 7 -7 0 -10 -3 -7 -7z"/>
 <path d="M2638 693 c7 -3 16 -2 19 1 4 3 -2 6 -13 5 -11 0 -14 -3 -6 -6z"/>
 </g>
<g id="layer103" fill="#5e5ba2" stroke="none">
 <path d="M0 3150 l0 -3150 3150 0 3150 0 0 3150 0 3150 -3150 0 -3150 0 0 -3150z m4934 2488 c18 -19 55 -84 86 -153 29 -66 68 -151 85 -190 90 -197 106 -236 99 -247 -4 -6 -3 -8 2 -5 5 3 70 -128 144 -291 73 -163 181 -400 238 -527 57 -126 107 -249 109 -271 3 -23 0 -183 -6 -355 -6 -173 -16 -476 -22 -674 -10 -322 -13 -365 -31 -407 -11 -26 -23 -46 -27 -44 -3 2 -7 -6 -8 -17 -2 -31 -304 -647 -314 -641 -5 3 -6 -1 -4 -8 8 -20 -237 -518 -268 -547 -26 -24 -28 -24 -947 -246 -141 -34 -874 -210 -1335 -320 -126 -31 -251 -61 -276 -67 -87 -21 1 -108 -1008 1007 -124 137 -256 282 -294 323 -37 40 -64 78 -61 84 4 6 2 8 -3 5 -10 -7 -413 430 -463 501 -19 27 -25 47 -23 81 1 25 29 215 62 421 34 206 82 506 108 667 26 160 50 290 54 287 4 -2 5 4 3 13 -6 23 123 828 136 854 6 11 15 17 21 14 5 -4 8 -3 7 2 -5 16 24 73 35 66 5 -3 7 -2 4 4 -3 5 36 74 88 154 289 445 340 521 359 532 22 13 760 20 2520 25 l898 2 32 -32z"/>
 <path d="M4013 5653 c9 -2 25 -2 35 0 9 3 1 5 -18 5 -19 0 -27 -2 -17 -5z"/>
 <path d="M4198 5653 c12 -2 30 -2 40 0 9 3 -1 5 -23 4 -22 0 -30 -2 -17 -4z"/>
 <path d="M4273 5653 c9 -2 25 -2 35 0 9 3 1 5 -18 5 -19 0 -27 -2 -17 -5z"/>
 <path d="M4428 5653 c17 -2 47 -2 65 0 17 2 3 4 -33 4 -36 0 -50 -2 -32 -4z"/>
 <path d="M4960 5560 c0 -7 3 -10 7 -7 3 4 3 10 0 14 -4 3 -7 0 -7 -7z"/>
 <path d="M3213 5423 c9 -2 25 -2 35 0 9 3 1 5 -18 5 -19 0 -27 -2 -17 -5z"/>
 <path d="M3260 5400 c-24 -8 -23 -8 8 -9 20 -1 31 3 27 9 -3 6 -7 10 -8 9 -1 -1 -13 -5 -27 -9z"/>
 <path d="M3178 5393 c7 -3 16 -2 19 1 4 3 -2 6 -13 5 -11 0 -14 -3 -6 -6z"/>
 <path d="M3110 5365 c-25 -8 -70 -31 -100 -52 -98 -68 -127 -137 -115 -268 4 -44 7 -93 7 -108 1 -16 4 -24 7 -18 4 6 15 -7 25 -29 22 -50 97 -117 146 -130 50 -13 192 -31 198 -25 3 3 -6 5 -19 5 -13 0 7 11 45 24 56 19 78 33 112 72 71 80 89 125 89 224 0 101 -20 153 -85 224 -80 87 -194 117 -310 81z"/>
 <path d="M2960 5340 c0 -7 3 -10 7 -7 3 4 3 10 0 14 -4 3 -7 0 -7 -7z"/>
 <path d="M3413 5313 c4 -3 10 -3 14 0 3 4 0 7 -7 7 -7 0 -10 -3 -7 -7z"/>
 <path d="M2893 5273 c4 -3 10 -3 14 0 3 4 0 7 -7 7 -7 0 -10 -3 -7 -7z"/>
 <path d="M3470 5250 c0 -7 3 -10 7 -7 3 4 3 10 0 14 -4 3 -7 0 -7 -7z"/>
 <path d="M5120 5210 c0 -7 3 -10 7 -7 3 4 3 10 0 14 -4 3 -7 0 -7 -7z"/>
 <path d="M3493 5203 c4 -3 10 -3 14 0 3 4 0 7 -7 7 -7 0 -10 -3 -7 -7z"/>
 <path d="M3510 5150 c0 -7 3 -10 7 -7 3 4 3 10 0 14 -4 3 -7 0 -7 -7z"/>
 <path d="M3510 4970 c0 -7 3 -10 7 -7 3 4 3 10 0 14 -4 3 -7 0 -7 -7z"/>
 <path d="M3510 4890 c0 -7 3 -10 7 -7 3 4 3 10 0 14 -4 3 -7 0 -7 -7z"/>
 <path d="M3473 4883 c4 -3 10 -3 14 0 3 4 0 7 -7 7 -7 0 -10 -3 -7 -7z"/>
 <path d="M4720 4870 c0 -7 3 -10 7 -7 3 4 3 10 0 14 -4 3 -7 0 -7 -7z"/>
 <path d="M4753 4873 c4 -3 10 -3 14 0 3 4 0 7 -7 7 -7 0 -10 -3 -7 -7z"/>
 <path d="M4743 4848 c-6 -7 -25 -41 -44 -75 -23 -43 -36 -59 -42 -50 -6 8 -7 6 -3 -5 4 -13 -64 -154 -90 -186 -1 -2 -50 29 -108 69 -75 52 -102 75 -94 82 9 6 7 7 -5 3 -11 -4 -37 7 -70 29 -54 37 -84 44 -93 22 -2 -7 11 -55 31 -107 21 -55 33 -101 30 -114 -5 -15 -3 -17 3 -8 6 10 17 -7 36 -58 14 -39 26 -77 26 -84 0 -17 -33 -47 -56 -50 -9 -2 -19 -11 -20 -21 -5 -33 -41 -60 -86 -64 -5 -1 -8 -6 -8 -12 0 -8 6 -7 18 2 9 7 2 -3 -17 -23 -21 -23 -39 -35 -50 -31 -12 4 -13 3 -3 -5 11 -7 10 -12 -4 -26 -14 -15 -15 -19 -3 -27 18 -11 9 -11 195 -9 l161 2 54 -82 c30 -45 53 -86 52 -91 -2 -5 1 -9 6 -9 4 0 29 -31 55 -69 48 -72 79 -93 101 -70 7 8 27 90 46 183 18 93 38 174 44 181 5 7 75 38 155 70 157 62 194 86 170 108 -8 8 -73 38 -145 67 -71 29 -135 59 -141 66 -5 7 -18 93 -28 191 -10 98 -22 186 -27 196 -11 20 -32 22 -46 5z"/>
 <path d="M5300 4810 c0 -7 3 -10 7 -7 3 4 3 10 0 14 -4 3 -7 0 -7 -7z"/>
 <path d="M4163 4793 c4 -3 10 -3 14 0 3 4 0 7 -7 7 -7 0 -10 -3 -7 -7z"/>
 <path d="M4850 4790 c0 -7 3 -10 7 -7 3 4 3 10 0 14 -4 3 -7 0 -7 -7z"/>
 <path d="M4670 4770 c0 -7 3 -10 7 -7 3 4 3 10 0 14 -4 3 -7 0 -7 -7z"/>
 <path d="M3373 4763 c4 -3 10 -3 14 0 3 4 0 7 -7 7 -7 0 -10 -3 -7 -7z"/>
 <path d="M4165 4760 c-8 -13 5 -13 25 0 13 8 13 10 -2 10 -9 0 -20 -4 -23 -10z"/>
 <path d="M3323 4743 c4 -3 10 -3 14 0 3 4 0 7 -7 7 -7 0 -10 -3 -7 -7z"/>
 <path d="M4166 4717 c3 -10 9 -15 12 -12 3 3 0 11 -7 18 -10 9 -11 8 -5 -6z"/>
 <path d="M4363 4713 c4 -3 10 -3 14 0 3 4 0 7 -7 7 -7 0 -10 -3 -7 -7z"/>
 <path d="M4390 4700 c0 -7 3 -10 7 -7 3 4 3 10 0 14 -4 3 -7 0 -7 -7z"/>
 <path d="M941 4654 c0 -11 3 -14 6 -6 3 7 2 16 -1 19 -3 4 -6 -2 -5 -13z"/>
 <path d="M4190 4650 c0 -7 3 -10 7 -7 3 4 3 10 0 14 -4 3 -7 0 -7 -7z"/>
 <path d="M4600 4650 c0 -7 3 -10 7 -7 3 4 3 10 0 14 -4 3 -7 0 -7 -7z"/>
 <path d="M4830 4630 c0 -7 3 -10 7 -7 3 4 3 10 0 14 -4 3 -7 0 -7 -7z"/>
 <path d="M4201 4604 c0 -11 3 -14 6 -6 3 7 2 16 -1 19 -3 4 -6 -2 -5 -13z"/>
 <path d="M4465 4610 c3 -5 8 -10 11 -10 2 0 4 5 4 10 0 6 -5 10 -11 10 -5 0 -7 -4 -4 -10z"/>
 <path d="M4577 4613 c-4 -3 -7 -11 -7 -17 0 -6 5 -5 12 2 6 6 9 14 7 17 -3 3 -9 2 -12 -2z"/>
 <path d="M4846 4565 c-9 -26 -7 -32 5 -12 6 10 9 21 6 23 -2 3 -7 -2 -11 -11z"/>
 <path d="M4553 4553 c4 -3 10 -3 14 0 3 4 0 7 -7 7 -7 0 -10 -3 -7 -7z"/>
 <path d="M4240 4470 c0 -7 3 -10 7 -7 3 4 3 10 0 14 -4 3 -7 0 -7 -7z"/>
 <path d="M4251 4434 c0 -11 3 -14 6 -6 3 7 2 16 -1 19 -3 4 -6 -2 -5 -13z"/>
 <path d="M4923 4433 c4 -3 10 -3 14 0 3 4 0 7 -7 7 -7 0 -10 -3 -7 -7z"/>
 <path d="M901 4414 c0 -11 3 -14 6 -6 3 7 2 16 -1 19 -3 4 -6 -2 -5 -13z"/>
 <path d="M5043 4383 c4 -3 10 -3 14 0 3 4 0 7 -7 7 -7 0 -10 -3 -7 -7z"/>
 <path d="M4253 4373 c4 -3 10 -3 14 0 3 4 0 7 -7 7 -7 0 -10 -3 -7 -7z"/>
 <path d="M1460 4270 c-49 -49 -101 -105 -115 -124 -18 -23 -32 -33 -43 -29 -11 3 -13 2 -5 -4 8 -6 8 -12 -1 -25 -7 -10 -15 -16 -18 -13 -2 3 -5 -1 -5 -7 0 -7 -25 -50 -56 -95 -31 -45 -63 -95 -72 -112 -9 -19 -20 -29 -27 -25 -7 4 -8 3 -4 -4 4 -6 -5 -35 -20 -64 -72 -141 -127 -354 -145 -558 -14 -159 -6 -432 15 -536 33 -163 116 -351 213 -482 170 -232 260 -314 500 -455 51 -30 89 -58 85 -62 -4 -5 -2 -5 5 -1 7 4 39 -7 72 -24 90 -45 215 -89 316 -110 195 -42 524 -15 720 60 15 6 37 8 49 5 15 -5 17 -4 8 3 -11 7 -10 11 4 16 11 4 20 2 22 -3 2 -6 8 -11 13 -11 4 0 6 6 3 13 -3 8 15 22 48 37 227 102 399 272 543 537 15 29 32 50 38 46 6 -3 7 -1 4 4 -4 6 17 62 47 124 122 258 161 500 122 759 -46 302 -184 540 -436 749 -36 30 -64 59 -62 64 1 4 -2 6 -7 3 -5 -3 -38 12 -74 33 -35 22 -90 51 -122 64 -32 13 -52 27 -44 29 8 3 1 5 -16 5 -16 0 -63 7 -103 16 -173 40 -395 8 -539 -76 -18 -10 -38 -15 -44 -11 -7 4 -9 3 -5 -4 4 -6 -4 -16 -16 -23 -13 -6 -53 -34 -91 -61 -41 -31 -73 -48 -83 -44 -8 3 -12 11 -9 16 4 6 1 9 -7 8 -7 -2 -12 3 -10 10 1 8 -2 11 -8 7 -5 -3 -50 34 -100 83 -49 49 -90 86 -90 83 0 -3 -16 10 -35 29 -19 18 -31 38 -28 43 3 6 2 7 -4 4 -13 -8 -96 77 -86 88 5 4 2 5 -5 1 -9 -5 -35 13 -77 53 -91 87 -103 86 -215 -29z"/>
 <path d="M4283 4353 c4 -3 10 -3 14 0 3 4 0 7 -7 7 -7 0 -10 -3 -7 -7z"/>
 <path d="M5160 4330 c0 -7 3 -10 7 -7 3 4 3 10 0 14 -4 3 -7 0 -7 -7z"/>
 <path d="M1720 4300 c0 -5 5 -10 11 -10 5 0 7 5 4 10 -3 6 -8 10 -11 10 -2 0 -4 -4 -4 -10z"/>
 <path d="M4180 4290 c0 -5 5 -10 10 -10 6 0 10 5 10 10 0 6 -4 10 -10 10 -5 0 -10 -4 -10 -10z"/>
 <path d="M5520 4230 c0 -7 3 -10 7 -7 3 4 3 10 0 14 -4 3 -7 0 -7 -7z"/>
 <path d="M4960 4200 c0 -5 5 -10 11 -10 5 0 7 5 4 10 -3 6 -8 10 -11 10 -2 0 -4 -4 -4 -10z"/>
 <path d="M5023 4203 c4 -3 10 -3 14 0 3 4 0 7 -7 7 -7 0 -10 -3 -7 -7z"/>
 <path d="M1813 4193 c4 -3 10 -3 14 0 3 4 0 7 -7 7 -7 0 -10 -3 -7 -7z"/>
 <path d="M4120 4190 c0 -7 3 -10 7 -7 3 4 3 10 0 14 -4 3 -7 0 -7 -7z"/>
 <path d="M860 4170 c0 -7 3 -10 7 -7 3 4 3 10 0 14 -4 3 -7 0 -7 -7z"/>
 <path d="M4993 4173 c4 -3 10 -3 14 0 3 4 0 7 -7 7 -7 0 -10 -3 -7 -7z"/>
 <path d="M5023 4163 c4 -3 10 -3 14 0 3 4 0 7 -7 7 -7 0 -10 -3 -7 -7z"/>
 <path d="M2865 4150 c11 -5 27 -9 35 -9 9 0 8 4 -5 9 -11 5 -27 9 -35 9 -9 0 -8 -4 5 -9z"/>
 <path d="M1906 4125 c4 -8 8 -15 10 -15 2 0 4 7 4 15 0 8 -4 15 -10 15 -5 0 -7 -7 -4 -15z"/>
 <path d="M4803 4123 c4 -3 10 -3 14 0 3 4 0 7 -7 7 -7 0 -10 -3 -7 -7z"/>
 <path d="M4093 4083 c4 -3 10 -3 14 0 3 4 0 7 -7 7 -7 0 -10 -3 -7 -7z"/>
 <path d="M1200 4030 c0 -7 3 -10 7 -7 3 4 3 10 0 14 -4 3 -7 0 -7 -7z"/>
 <path d="M2340 4030 c0 -5 5 -10 10 -10 6 0 10 5 10 10 0 6 -4 10 -10 10 -5 0 -10 -4 -10 -10z"/>
 <path d="M3153 4033 c4 -3 10 -3 14 0 3 4 0 7 -7 7 -7 0 -10 -3 -7 -7z"/>
 <path d="M4475 4020 c3 -5 8 -10 11 -10 3 0 2 5 -1 10 -3 6 -8 10 -11 10 -3 0 -2 -4 1 -10z"/>
 <path d="M1205 4000 c-3 -6 1 -7 9 -4 18 7 21 14 7 14 -6 0 -13 -4 -16 -10z"/>
 <path d="M4493 3993 c4 -3 10 -3 14 0 3 4 0 7 -7 7 -7 0 -10 -3 -7 -7z"/>
 <path d="M4781 3984 c0 -11 3 -14 6 -6 3 7 2 16 -1 19 -3 4 -6 -2 -5 -13z"/>
 <path d="M2160 3970 c0 -7 3 -10 7 -7 3 4 3 10 0 14 -4 3 -7 0 -7 -7z"/>
 <path d="M2240 3972 c0 -7 -6 -12 -14 -12 -8 0 -17 -4 -20 -9 -4 -5 3 -7 14 -4 22 6 35 21 26 30 -3 4 -6 1 -6 -5z"/>
 <path d="M2150 3900 c0 -5 5 -10 10 -10 6 0 10 5 10 10 0 6 -4 10 -10 10 -5 0 -10 -4 -10 -10z"/>
 <path d="M3330 3900 c0 -7 3 -10 7 -7 3 4 3 10 0 14 -4 3 -7 0 -7 -7z"/>
 <path d="M1130 3890 c0 -7 3 -10 7 -7 3 4 3 10 0 14 -4 3 -7 0 -7 -7z"/>
 <path d="M4575 3870 c3 -5 8 -10 11 -10 3 0 2 5 -1 10 -3 6 -8 10 -11 10 -3 0 -2 -4 1 -10z"/>
 <path d="M3430 3820 c0 -7 3 -10 7 -7 3 4 3 10 0 14 -4 3 -7 0 -7 -7z"/>
 <path d="M4561 3804 c0 -11 3 -14 6 -6 3 7 2 16 -1 19 -3 4 -6 -2 -5 -13z"/>
 <path d="M1070 3770 c0 -7 3 -10 7 -7 3 4 3 10 0 14 -4 3 -7 0 -7 -7z"/>
 <path d="M790 3750 c0 -7 3 -10 7 -7 3 4 3 10 0 14 -4 3 -7 0 -7 -7z"/>
 <path d="M1050 3730 c0 -7 3 -10 7 -7 3 4 3 10 0 14 -4 3 -7 0 -7 -7z"/>
 <path d="M962 3580 c0 -14 2 -19 5 -12 2 6 2 18 0 25 -3 6 -5 1 -5 -13z"/>
 <path d="M990 3584 c0 -8 5 -12 10 -9 6 3 10 10 10 16 0 5 -4 9 -10 9 -5 0 -10 -7 -10 -16z"/>
 <path d="M3635 3570 c3 -5 8 -10 11 -10 2 0 4 5 4 10 0 6 -5 10 -11 10 -5 0 -7 -4 -4 -10z"/>
 <path d="M761 3554 c0 -11 3 -14 6 -6 3 7 2 16 -1 19 -3 4 -6 -2 -5 -13z"/>
 <path d="M3741 3404 c0 -11 3 -14 6 -6 3 7 2 16 -1 19 -3 4 -6 -2 -5 -13z"/>
 <path d="M3751 3314 c0 -11 3 -14 6 -6 3 7 2 16 -1 19 -3 4 -6 -2 -5 -13z"/>
 <path d="M930 3270 c0 -7 3 -10 7 -7 3 4 3 10 0 14 -4 3 -7 0 -7 -7z"/>
 <path d="M3780 3180 c0 -7 3 -10 7 -7 3 4 3 10 0 14 -4 3 -7 0 -7 -7z"/>
 <path d="M922 3095 c0 -16 2 -22 5 -12 2 9 2 23 0 30 -3 6 -5 -1 -5 -18z"/>
 <path d="M3790 3110 c0 -7 3 -10 7 -7 3 4 3 10 0 14 -4 3 -7 0 -7 -7z"/>
 <path d="M3821 3054 c0 -11 3 -14 6 -6 3 7 2 16 -1 19 -3 4 -6 -2 -5 -13z"/>
 <path d="M903 2960 c0 -47 2 -66 4 -42 2 23 2 61 0 85 -2 23 -4 4 -4 -43z"/>
 <path d="M3830 2970 c0 -7 3 -10 7 -7 3 4 3 10 0 14 -4 3 -7 0 -7 -7z"/>
 <path d="M3803 2815 c0 -22 2 -30 4 -17 2 12 2 30 0 40 -3 9 -5 -1 -4 -23z"/>
 <path d="M922 2820 c0 -14 2 -19 5 -12 2 6 2 18 0 25 -3 6 -5 1 -5 -13z"/>
 <path d="M630 2730 c0 -7 3 -10 7 -7 3 4 3 10 0 14 -4 3 -7 0 -7 -7z"/>
 <path d="M3781 2654 c0 -11 3 -14 6 -6 3 7 2 16 -1 19 -3 4 -6 -2 -5 -13z"/>
 <path d="M3741 2554 c0 -11 3 -14 6 -6 3 7 2 16 -1 19 -3 4 -6 -2 -5 -13z"/>
 <path d="M5620 2550 c0 -7 3 -10 7 -7 3 4 3 10 0 14 -4 3 -7 0 -7 -7z"/>
 <path d="M3720 2490 c0 -7 3 -10 7 -7 3 4 3 10 0 14 -4 3 -7 0 -7 -7z"/>
 <path d="M1000 2450 c0 -7 3 -10 7 -7 3 4 3 10 0 14 -4 3 -7 0 -7 -7z"/>
 <path d="M1050 2350 c0 -7 3 -10 7 -7 3 4 3 10 0 14 -4 3 -7 0 -7 -7z"/>
 <path d="M3660 2350 c0 -7 3 -10 7 -7 3 4 3 10 0 14 -4 3 -7 0 -7 -7z"/>
 <path d="M3640 2310 c0 -7 3 -10 7 -7 3 4 3 10 0 14 -4 3 -7 0 -7 -7z"/>
 <path d="M3623 2273 c4 -3 10 -3 14 0 3 4 0 7 -7 7 -7 0 -10 -3 -7 -7z"/>
 <path d="M1120 2190 c0 -7 3 -10 7 -7 3 4 3 10 0 14 -4 3 -7 0 -7 -7z"/>
 <path d="M3580 2190 c0 -7 3 -10 7 -7 3 4 3 10 0 14 -4 3 -7 0 -7 -7z"/>
 <path d="M1133 2163 c4 -3 10 -3 14 0 3 4 0 7 -7 7 -7 0 -10 -3 -7 -7z"/>
 <path d="M5440 2150 c0 -7 3 -10 7 -7 3 4 3 10 0 14 -4 3 -7 0 -7 -7z"/>
 <path d="M1245 2050 c3 -5 8 -10 11 -10 3 0 2 5 -1 10 -3 6 -8 10 -11 10 -3 0 -2 -4 1 -10z"/>
 <path d="M1293 2003 c4 -3 10 -3 14 0 3 4 0 7 -7 7 -7 0 -10 -3 -7 -7z"/>
 <path d="M3493 2003 c4 -3 10 -3 14 0 3 4 0 7 -7 7 -7 0 -10 -3 -7 -7z"/>
 <path d="M3410 1930 c0 -7 3 -10 7 -7 3 4 3 10 0 14 -4 3 -7 0 -7 -7z"/>
 <path d="M3380 1895 c-8 -9 -8 -15 -2 -15 12 0 26 19 19 26 -2 2 -10 -2 -17 -11z"/>
 <path d="M1460 1860 c0 -7 3 -10 7 -7 3 4 3 10 0 14 -4 3 -7 0 -7 -7z"/>
 <path d="M3295 1810 c-3 -5 1 -10 9 -10 9 0 16 5 16 10 0 6 -4 10 -9 10 -6 0 -13 -4 -16 -10z"/>
 <path d="M1563 1763 c4 -3 10 -3 14 0 3 4 0 7 -7 7 -7 0 -10 -3 -7 -7z"/>
 <path d="M1633 1723 c4 -3 10 -3 14 0 3 4 0 7 -7 7 -7 0 -10 -3 -7 -7z"/>
 <path d="M3160 1720 c-9 -6 -10 -10 -3 -10 6 0 15 5 18 10 8 12 4 12 -15 0z"/>
 <path d="M1703 1693 c4 -3 10 -3 14 0 3 4 0 7 -7 7 -7 0 -10 -3 -7 -7z"/>
 <path d="M3123 1693 c4 -3 10 -3 14 0 3 4 0 7 -7 7 -7 0 -10 -3 -7 -7z"/>
 <path d="M1785 1650 c3 -5 8 -10 11 -10 2 0 4 5 4 10 0 6 -5 10 -11 10 -5 0 -7 -4 -4 -10z"/>
 <path d="M3043 1643 c4 -3 10 -3 14 0 3 4 0 7 -7 7 -7 0 -10 -3 -7 -7z"/>
 <path d="M2863 1573 c4 -3 10 -3 14 0 3 4 0 7 -7 7 -7 0 -10 -3 -7 -7z"/>
 <path d="M1963 1563 c9 -2 23 -2 30 0 6 3 -1 5 -18 5 -16 0 -22 -2 -12 -5z"/>
 <path d="M1990 1530 c-8 -5 -10 -10 -5 -10 6 0 17 5 25 10 8 5 11 10 5 10 -5 0 -17 -5 -25 -10z"/>
 <path d="M2083 1533 c4 -3 10 -3 14 0 3 4 0 7 -7 7 -7 0 -10 -3 -7 -7z"/>
 <path d="M2783 1533 c4 -3 10 -3 14 0 3 4 0 7 -7 7 -7 0 -10 -3 -7 -7z"/>
 <path d="M1590 1510 c0 -7 3 -10 7 -7 3 4 3 10 0 14 -4 3 -7 0 -7 -7z"/>
 <path d="M1647 1439 c7 -7 15 -10 18 -7 3 3 -2 9 -12 12 -14 6 -15 5 -6 -5z"/>
 <path d="M5040 1430 c0 -7 3 -10 7 -7 3 4 3 10 0 14 -4 3 -7 0 -7 -7z"/>
 <path d="M4993 1273 c4 -3 10 -3 14 0 3 4 0 7 -7 7 -7 0 -10 -3 -7 -7z"/>
 <path d="M4563 1153 c4 -3 10 -3 14 0 3 4 0 7 -7 7 -7 0 -10 -3 -7 -7z"/>
 <path d="M4403 1113 c4 -3 10 -3 14 0 3 4 0 7 -7 7 -7 0 -10 -3 -7 -7z"/>
 <path d="M4228 1073 c7 -3 16 -2 19 1 4 3 -2 6 -13 5 -11 0 -14 -3 -6 -6z"/>
 <path d="M3993 1013 c4 -3 10 -3 14 0 3 4 0 7 -7 7 -7 0 -10 -3 -7 -7z"/>
 <path d="M3733 953 c4 -3 10 -3 14 0 3 4 0 7 -7 7 -7 0 -10 -3 -7 -7z"/>
 <path d="M2638 693 c7 -3 16 -2 19 1 4 3 -2 6 -13 5 -11 0 -14 -3 -6 -6z"/>
 </g>
<g id="layer104" fill="#909090" stroke="none">
 <path d="M0 3150 l0 -3150 3150 0 3150 0 0 3150 0 3150 -3150 0 -3150 0 0 -3150z m4934 2488 c19 -20 56 -86 90 -163 32 -71 69 -152 81 -180 13 -27 85 -187 160 -355 76 -168 171 -379 212 -470 41 -91 109 -241 150 -334 l76 -170 -12 -360 c-6 -199 -16 -505 -21 -681 -6 -176 -12 -334 -14 -351 -4 -28 -133 -301 -514 -1084 -54 -113 -111 -216 -125 -229 -26 -24 -29 -24 -947 -246 -141 -34 -874 -210 -1335 -320 -126 -31 -251 -61 -276 -67 -37 -9 -54 -8 -78 2 -21 8 -162 157 -404 424 -205 226 -442 487 -527 581 -85 94 -256 283 -380 420 -124 137 -274 303 -334 369 -59 65 -115 134 -122 152 -16 38 -25 -25 106 784 38 239 108 673 155 964 78 482 88 533 113 572 47 75 226 352 353 547 67 104 132 194 143 200 22 13 760 20 2520 25 l898 2 32 -32z"/>
 <path d="M3110 5365 c-25 -8 -70 -31 -100 -52 -95 -67 -126 -136 -117 -263 8 -105 32 -165 93 -227 53 -54 86 -68 181 -79 38 -5 70 -1 125 16 62 19 80 30 121 74 73 79 92 125 92 226 0 101 -20 153 -85 224 -80 87 -194 117 -310 81z"/>
 <path d="M4736 4838 c-7 -13 -49 -86 -91 -163 -43 -77 -79 -141 -81 -143 -1 -2 -75 46 -165 107 -158 108 -194 125 -205 98 -2 -7 25 -91 61 -185 36 -95 65 -177 65 -183 0 -6 -52 -62 -115 -123 -63 -61 -115 -117 -115 -123 0 -23 26 -26 190 -24 l167 2 106 -160 c106 -159 136 -188 162 -160 7 8 27 90 46 183 18 93 38 174 44 181 5 7 75 38 155 70 157 62 194 86 170 108 -8 8 -73 38 -145 67 -71 29 -135 59 -141 66 -5 7 -18 93 -28 191 -10 98 -22 186 -27 196 -13 24 -36 21 -53 -5z"/>
 <path d="M1482 4293 c-145 -143 -272 -310 -366 -485 -128 -237 -186 -537 -173 -898 9 -237 40 -366 133 -553 75 -149 241 -361 358 -455 213 -172 497 -314 721 -362 210 -45 523 -15 757 74 336 127 504 291 709 693 117 229 169 420 169 622 0 335 -114 623 -334 843 -232 232 -457 338 -714 338 -187 0 -338 -55 -523 -191 -37 -27 -70 -49 -75 -49 -8 0 -70 56 -402 368 -162 151 -162 151 -260 55z"/>
 </g>
<g id="layer105" fill="#c8e0ec" stroke="none">
 <path d="M0 3150 l0 -3150 3150 0 3150 0 0 3150 0 3150 -3150 0 -3150 0 0 -3150z m4910 2512 c36 -18 66 -67 137 -227 17 -38 167 -371 333 -740 166 -368 308 -688 315 -710 10 -32 8 -174 -11 -732 -22 -654 -24 -695 -44 -740 -11 -27 -150 -315 -308 -642 -224 -463 -294 -599 -317 -617 -23 -17 -139 -49 -490 -133 -253 -61 -543 -131 -645 -156 -102 -24 -374 -90 -605 -145 -231 -56 -503 -121 -605 -146 -243 -59 -276 -63 -317 -32 -18 12 -105 104 -194 203 -190 211 -488 541 -574 635 -33 36 -163 180 -290 320 -126 140 -326 360 -444 490 -117 129 -222 249 -232 265 -11 17 -19 43 -19 59 0 26 71 476 220 1396 153 939 134 842 176 909 206 324 450 691 474 714 l30 27 183 1 c100 1 772 5 1492 8 721 4 1398 8 1505 9 168 2 200 0 230 -16z"/>
 <path d="M3158 5256 c-51 -14 -109 -54 -134 -92 -24 -36 -15 -164 15 -222 31 -60 90 -87 174 -79 71 6 99 24 146 93 31 46 33 53 28 117 -3 55 -10 77 -33 109 -48 68 -119 95 -196 74z"/>
 <path d="M4674 4607 c-38 -69 -78 -130 -89 -135 -17 -8 -44 6 -160 84 -131 89 -158 102 -139 72 5 -7 9 -17 10 -23 1 -5 21 -59 45 -120 23 -60 42 -118 41 -129 0 -10 -42 -59 -91 -108 -50 -49 -91 -91 -91 -93 0 -3 64 -5 143 -5 l143 0 94 -145 c52 -80 98 -145 101 -145 3 0 18 68 34 152 16 83 36 159 45 169 8 10 75 42 149 72 l133 54 -113 47 c-63 26 -121 56 -130 66 -12 13 -20 58 -29 152 -7 73 -16 139 -20 147 -5 9 -30 -28 -76 -112z"/>
 <path d="M1492 4134 c-217 -231 -358 -501 -408 -779 -22 -119 -31 -486 -15 -594 36 -246 145 -460 341 -674 84 -91 148 -141 285 -224 313 -190 536 -251 808 -223 285 29 559 140 724 294 176 164 389 569 433 824 33 189 -2 466 -79 637 -119 262 -395 504 -658 576 -90 25 -239 29 -323 10 -124 -29 -300 -132 -418 -245 -63 -59 -157 -187 -192 -261 -88 -185 -95 -428 -15 -554 57 -91 203 -194 342 -242 113 -39 251 -18 335 51 45 38 74 110 93 234 10 71 18 94 35 108 29 23 33 23 67 -6 l27 -24 -12 -86 c-25 -173 -68 -263 -159 -332 -95 -72 -249 -101 -373 -70 -88 22 -251 105 -328 167 -133 106 -190 221 -199 399 -11 220 72 452 221 618 l35 39 -77 74 c-219 211 -391 369 -400 369 -6 0 -46 -39 -90 -86z"/>
 </g>
<g id="layer106" fill="#f4eed4" stroke="none">
 <path d="M3115 5236 c-75 -35 -98 -65 -103 -135 -12 -171 87 -267 237 -231 75 18 141 104 141 183 0 78 -47 159 -111 193 -41 21 -107 17 -164 -10z"/>
 <path d="M4707 4664 c-73 -136 -105 -189 -120 -198 -13 -8 -46 10 -153 82 -75 51 -138 91 -141 89 -3 -4 12 -50 37 -112 15 -36 60 -166 60 -172 0 -3 -44 -51 -97 -105 l-98 -100 126 7 c69 4 136 4 148 0 13 -4 57 -61 113 -146 50 -77 94 -137 98 -132 4 4 20 69 35 143 15 74 31 143 35 155 5 14 46 35 144 74 75 30 134 56 131 60 -4 3 -56 26 -117 52 -61 25 -114 52 -118 60 -5 8 -13 66 -20 129 -6 63 -15 130 -19 149 l-7 35 -37 -70z"/>
 <path d="M1479 4118 c-153 -173 -279 -376 -333 -539 -61 -184 -86 -356 -86 -598 0 -353 78 -564 312 -846 103 -124 214 -212 388 -307 36 -20 86 -47 111 -61 73 -40 226 -94 319 -113 123 -25 366 -15 507 20 127 32 269 86 346 131 32 19 61 35 63 35 3 0 36 25 74 56 119 96 223 240 340 472 132 263 172 471 140 722 -24 180 -93 360 -187 483 -108 142 -289 291 -429 353 -141 62 -315 81 -454 48 -224 -52 -494 -280 -600 -505 -52 -111 -73 -217 -68 -339 3 -86 9 -115 30 -160 47 -102 126 -175 267 -245 139 -70 234 -82 338 -44 116 43 157 110 188 302 13 84 28 107 70 107 12 0 30 -9 40 -20 34 -38 1 -233 -58 -344 -59 -112 -201 -186 -357 -186 -160 0 -370 99 -502 238 -99 104 -138 210 -138 378 0 212 69 400 210 570 22 27 40 51 40 54 0 4 -77 78 -171 166 -271 253 -294 274 -301 274 -4 0 -48 -46 -99 -102z"/>
 </g>
<g id="layer107" fill="#f7f4e3" stroke="none">
 <path d="M3213 5253 c4 -3 10 -3 14 0 3 4 0 7 -7 7 -7 0 -10 -3 -7 -7z"/>
 <path d="M3044 5178 l-19 -23 23 19 c21 18 27 26 19 26 -2 0 -12 -10 -23 -22z"/>
 <path d="M3020 5010 c0 -7 3 -10 7 -7 3 4 3 10 0 14 -4 3 -7 0 -7 -7z"/>
 <path d="M3309 4913 c-13 -16 -12 -17 4 -4 16 13 21 21 13 21 -2 0 -10 -8 -17 -17z"/>
 <path d="M4736 4703 c-6 -14 -5 -15 5 -6 7 7 10 15 7 18 -3 3 -9 -2 -12 -12z"/>
 <path d="M4687 4627 c-3 -8 1 -14 8 -14 7 0 11 6 8 14 -3 7 -6 13 -8 13 -2 0 -5 -6 -8 -13z"/>
 <path d="M4293 4623 c4 -3 10 -3 14 0 3 4 0 7 -7 7 -7 0 -10 -3 -7 -7z"/>
 <path d="M4414 4538 c-4 -7 -3 -8 4 -4 12 7 16 16 8 16 -3 0 -8 -5 -12 -12z"/>
 <path d="M4330 4531 c0 -6 4 -13 10 -16 6 -3 7 1 4 9 -7 18 -14 21 -14 7z"/>
 <path d="M4623 4503 c4 -3 10 -3 14 0 3 4 0 7 -7 7 -7 0 -10 -3 -7 -7z"/>
 <path d="M4374 4428 c-4 -7 -3 -8 4 -4 12 7 16 16 8 16 -3 0 -8 -5 -12 -12z"/>
 <path d="M4390 4360 c0 -7 3 -10 7 -7 3 4 3 10 0 14 -4 3 -7 0 -7 -7z"/>
 <path d="M4370 4320 c0 -7 3 -10 7 -7 3 4 3 10 0 14 -4 3 -7 0 -7 -7z"/>
 <path d="M4344 4288 c-4 -7 -3 -8 4 -4 7 4 12 9 12 12 0 8 -9 4 -16 -8z"/>
 <path d="M4753 4223 c4 -3 10 -3 14 0 3 4 0 7 -7 7 -7 0 -10 -3 -7 -7z"/>
 <path d="M4263 4213 c4 -3 10 -3 14 0 3 4 0 7 -7 7 -7 0 -10 -3 -7 -7z"/>
 <path d="M1650 4140 c0 -7 3 -10 7 -7 3 4 3 10 0 14 -4 3 -7 0 -7 -7z"/>
 <path d="M1486 4121 c-15 -17 -15 -19 -1 -25 10 -3 14 -2 10 5 -4 5 -1 16 5 24 18 22 6 18 -14 -4z"/>
 <path d="M4720 4110 c0 -7 3 -10 7 -7 3 4 3 10 0 14 -4 3 -7 0 -7 -7z"/>
 <path d="M1690 4106 c0 -2 8 -10 18 -17 15 -13 16 -12 3 4 -13 16 -21 21 -21 13z"/>
 <path d="M1735 4060 c3 -5 8 -10 11 -10 3 0 2 5 -1 10 -3 6 -8 10 -11 10 -3 0 -2 -4 1 -10z"/>
 <path d="M4555 4050 c3 -5 8 -10 11 -10 3 0 2 5 -1 10 -3 6 -8 10 -11 10 -3 0 -2 -4 1 -10z"/>
 <path d="M1425 4010 c3 -5 8 -10 11 -10 3 0 2 5 -1 10 -3 6 -8 10 -11 10 -3 0 -2 -4 1 -10z"/>
 <path d="M2803 3983 c4 -3 10 -3 14 0 3 4 0 7 -7 7 -7 0 -10 -3 -7 -7z"/>
 <path d="M1820 3976 c0 -2 7 -7 16 -10 8 -3 12 -2 9 4 -6 10 -25 14 -25 6z"/>
 <path d="M4615 3960 c3 -5 8 -10 11 -10 3 0 2 5 -1 10 -3 6 -8 10 -11 10 -3 0 -2 -4 1 -10z"/>
 <path d="M1854 3938 c-4 -7 -3 -8 4 -4 7 4 12 9 12 12 0 8 -9 4 -16 -8z"/>
 <path d="M4655 3900 c3 -5 8 -10 11 -10 3 0 2 5 -1 10 -3 6 -8 10 -11 10 -3 0 -2 -4 1 -10z"/>
 <path d="M1945 3870 c3 -5 8 -10 11 -10 3 0 2 5 -1 10 -3 6 -8 10 -11 10 -3 0 -2 -4 1 -10z"/>
 <path d="M1326 3848 c3 -5 10 -6 15 -3 13 9 11 12 -6 12 -8 0 -12 -4 -9 -9z"/>
 <path d="M1244 3788 c-4 -7 -3 -8 4 -4 7 4 12 9 12 12 0 8 -9 4 -16 -8z"/>
 <path d="M2020 3796 c0 -2 8 -10 18 -17 15 -13 16 -12 3 4 -13 16 -21 21 -21 13z"/>
 <path d="M2004 3768 c-4 -7 -3 -8 4 -4 12 7 16 16 8 16 -3 0 -8 -5 -12 -12z"/>
 <path d="M3305 3740 c3 -5 8 -10 11 -10 3 0 2 5 -1 10 -3 6 -8 10 -11 10 -3 0 -2 -4 1 -10z"/>
 <path d="M1973 3698 c-15 -20 -25 -38 -20 -38 3 0 12 11 21 25 17 26 16 35 -1 13z"/>
 <path d="M2139 3683 c-13 -16 -12 -17 4 -4 9 7 17 15 17 17 0 8 -8 3 -21 -13z"/>
 <path d="M3405 3640 c10 -11 20 -20 23 -20 3 0 -3 9 -13 20 -10 11 -20 20 -23 20 -3 0 3 -9 13 -20z"/>
 <path d="M1924 3628 c-4 -7 -3 -8 4 -4 7 4 12 9 12 12 0 8 -9 4 -16 -8z"/>
 <path d="M3384 3608 c-4 -7 -3 -8 4 -4 12 7 16 16 8 16 -3 0 -8 -5 -12 -12z"/>
 <path d="M3475 3550 c3 -5 8 -10 11 -10 3 0 2 5 -1 10 -3 6 -8 10 -11 10 -3 0 -2 -4 1 -10z"/>
 <path d="M1970 3410 c0 -7 3 -10 7 -7 3 4 3 10 0 14 -4 3 -7 0 -7 -7z"/>
 <path d="M2830 3096 c0 -2 7 -7 16 -10 8 -3 12 -2 9 4 -6 10 -25 14 -25 6z"/>
 <path d="M3660 2930 c0 -7 3 -10 7 -7 3 4 3 10 0 14 -4 3 -7 0 -7 -7z"/>
 <path d="M2056 2852 c-3 -5 1 -9 9 -9 8 0 12 4 9 9 -3 4 -7 8 -9 8 -2 0 -6 -4 -9 -8z"/>
 <path d="M2433 2663 c4 -3 10 -3 14 0 3 4 0 7 -7 7 -7 0 -10 -3 -7 -7z"/>
 <path d="M2744 2648 c-4 -7 -3 -8 4 -4 12 7 16 16 8 16 -3 0 -8 -5 -12 -12z"/>
 <path d="M3414 2198 c-4 -7 -3 -8 4 -4 7 4 12 9 12 12 0 8 -9 4 -16 -8z"/>
 <path d="M1435 2070 c3 -5 8 -10 11 -10 3 0 2 5 -1 10 -3 6 -8 10 -11 10 -3 0 -2 -4 1 -10z"/>
 <path d="M1460 2046 c0 -2 8 -10 18 -17 15 -13 16 -12 3 4 -13 16 -21 21 -21 13z"/>
 <path d="M3200 1996 c0 -2 8 -10 18 -17 15 -13 16 -12 3 4 -13 16 -21 21 -21 13z"/>
 <path d="M1583 1943 c4 -3 10 -3 14 0 3 4 0 7 -7 7 -7 0 -10 -3 -7 -7z"/>
 <path d="M2893 1743 c4 -3 10 -3 14 0 3 4 0 7 -7 7 -7 0 -10 -3 -7 -7z"/>
 <path d="M1973 1723 c4 -3 10 -3 14 0 3 4 0 7 -7 7 -7 0 -10 -3 -7 -7z"/>
 </g>

</svg>