<?xml version="1.0" encoding="UTF-8"?><svg xmlns="http://www.w3.org/2000/svg" xmlns:xlink="http://www.w3.org/1999/xlink" viewBox="0 0 48 48" version="1.1"><g id="surface1"><path d="M42 9s-15 9-29 6v27c14 2 29-6 29-6z" fill="#C5E1A5"/><path d="M20 11c-.004-2.762-3.137-5-7-5s-6.996 2.238-7 5v26.008h14z" fill="#8BC34A"/><path d="M20 37.008c0-2.766-3.133-5.004-7-5.004s-7 2.238-7 5.004c0 2.762 3.133 5.004 7 5.004s7-2.242 7-5.004z" fill="#558B2F"/><path d="M14 9c0 .55-.45 1-1 1s-1-.45-1-1 .45-1 1-1 1 .45 1 1z" fill="#558B2F"/><path d="M14 14c0 .55-.45 1-1 1s-1-.45-1-1 .45-1 1-1 1 .45 1 1z" fill="#558B2F"/><path d="M14 19c0 .55-.45 1-1 1s-1-.45-1-1 .45-1 1-1 1 .45 1 1z" fill="#558B2F"/><path d="M14 24c0 .55-.45 1-1 1s-1-.45-1-1 .45-1 1-1 1 .45 1 1z" fill="#558B2F"/><path d="M14 29c0 .55-.45 1-1 1s-1-.45-1-1 .45-1 1-1 1 .45 1 1z" fill="#558B2F"/><path d="M18 12c0 .55-.45 1-1 1s-1-.45-1-1 .45-1 1-1 1 .45 1 1z" fill="#558B2F"/><path d="M18 17c0 .55-.45 1-1 1s-1-.45-1-1 .45-1 1-1 1 .45 1 1z" fill="#558B2F"/><path d="M18 22c0 .55-.45 1-1 1s-1-.45-1-1 .45-1 1-1 1 .45 1 1z" fill="#558B2F"/><path d="M18 27c0 .55-.45 1-1 1s-1-.45-1-1 .45-1 1-1 1 .45 1 1z" fill="#558B2F"/><path d="M10 12c0 .55-.45 1-1 1s-1-.45-1-1 .45-1 1-1 1 .45 1 1z" fill="#558B2F"/><path d="M10 17c0 .55-.45 1-1 1s-1-.45-1-1 .45-1 1-1 1 .45 1 1z" fill="#558B2F"/><path d="M10 22c0 .55-.45 1-1 1s-1-.45-1-1 .45-1 1-1 1 .45 1 1z" fill="#558B2F"/><path d="M10 27c0 .55-.45 1-1 1s-1-.45-1-1 .45-1 1-1 1 .45 1 1z" fill="#558B2F"/><path d="M16 37.008c0-1.188-1.344-2.149-3-2.149s-3 .961-3 2.149c0 1.183 1.344 2.144 3 2.144s3-.96 3-2.144z" fill="#33691E"/></g><metadata><rdf:RDF xmlns:rdf="http://www.w3.org/1999/02/22-rdf-syntax-ns#" xmlns:rdfs="http://www.w3.org/2000/01/rdf-schema#" xmlns:dc="http://purl.org/dc/elements/1.1/"><rdf:Description about="https://iconscout.com/legal#licenses" dc:title="wallpaper,roll" dc:description="wallpaper,roll" dc:publisher="Iconscout" dc:date="2017-12-13" dc:format="image/svg+xml" dc:language="en"><dc:creator><rdf:Bag><rdf:li>Icons8</rdf:li></rdf:Bag></dc:creator></rdf:Description></rdf:RDF></metadata></svg>